<?xml version="1.0" encoding="UTF-8"?>
<svg xmlns="http://www.w3.org/2000/svg" xmlns:xlink="http://www.w3.org/1999/xlink" width="471pt" height="471pt" viewBox="0 0 471 471" version="1.1">
<g id="surface1">
<path style=" stroke:none;fill-rule:nonzero;fill:rgb(0%,38.398743%,14.498901%);fill-opacity:1;" d="M 164.222656 183.746094 L 163.542969 183.765625 L 163.542969 192.160156 L 164.222656 192.230469 L 164.222656 183.746094 "/>
<path style=" stroke:none;fill-rule:nonzero;fill:rgb(0%,38.398743%,14.498901%);fill-opacity:1;" d="M 187.492188 183.125 L 186.8125 183.140625 L 186.8125 194.375 L 187.492188 194.449219 L 187.492188 183.125 "/>
<path style=" stroke:none;fill-rule:nonzero;fill:rgb(0%,38.398743%,14.498901%);fill-opacity:1;" d="M 172.386719 183.527344 L 171.710938 183.550781 L 171.710938 192.941406 L 172.386719 193.011719 L 172.386719 183.527344 "/>
<path style=" stroke:none;fill-rule:nonzero;fill:rgb(0%,38.398743%,14.498901%);fill-opacity:1;" d="M 173.753906 183.492188 L 173.078125 183.515625 L 173.078125 193.082031 L 173.753906 193.136719 L 173.753906 183.492188 "/>
<path style=" stroke:none;fill-rule:nonzero;fill:rgb(0%,38.398743%,14.498901%);fill-opacity:1;" d="M 165.582031 183.707031 L 164.902344 183.734375 L 164.902344 192.296875 L 165.582031 192.359375 L 165.582031 183.707031 "/>
<path style=" stroke:none;fill-rule:nonzero;fill:rgb(0%,38.398743%,14.498901%);fill-opacity:1;" d="M 166.964844 183.671875 L 166.285156 183.691406 L 166.285156 192.429688 L 166.964844 192.496094 L 166.964844 183.671875 "/>
<path style=" stroke:none;fill-rule:nonzero;fill:rgb(0%,38.398743%,14.498901%);fill-opacity:1;" d="M 168.261719 183.640625 L 167.589844 183.65625 L 167.589844 192.550781 L 168.261719 192.621094 L 168.261719 183.640625 "/>
<path style=" stroke:none;fill-rule:nonzero;fill:rgb(0%,38.398743%,14.498901%);fill-opacity:1;" d="M 169.648438 183.601563 L 168.96875 183.621094 L 168.96875 192.683594 L 169.648438 192.746094 L 169.648438 183.601563 "/>
<path style=" stroke:none;fill-rule:nonzero;fill:rgb(0%,38.398743%,14.498901%);fill-opacity:1;" d="M 175.140625 183.453125 L 174.46875 183.46875 L 174.46875 193.207031 L 175.140625 193.265625 L 175.140625 183.453125 "/>
<path style=" stroke:none;fill-rule:nonzero;fill:rgb(0%,38.398743%,14.498901%);fill-opacity:1;" d="M 183.382813 183.234375 L 182.710938 183.246094 L 182.710938 193.988281 L 183.382813 194.050781 L 183.382813 183.234375 "/>
<path style=" stroke:none;fill-rule:nonzero;fill:rgb(0%,38.398743%,14.498901%);fill-opacity:1;" d="M 184.753906 183.199219 L 184.074219 183.210938 L 184.074219 194.117188 L 184.753906 194.183594 L 184.753906 183.199219 "/>
<path style=" stroke:none;fill-rule:nonzero;fill:rgb(0%,38.398743%,14.498901%);fill-opacity:1;" d="M 186.136719 183.164063 L 185.457031 183.171875 L 185.457031 194.253906 L 186.136719 194.316406 L 186.136719 183.164063 "/>
<path style=" stroke:none;fill-rule:nonzero;fill:rgb(0%,38.398743%,14.498901%);fill-opacity:1;" d="M 182 183.277344 L 181.316406 183.292969 L 181.316406 193.863281 L 182 193.917969 L 182 183.277344 "/>
<path style=" stroke:none;fill-rule:nonzero;fill:rgb(0%,38.398743%,14.498901%);fill-opacity:1;" d="M 176.5 183.421875 L 175.816406 183.433594 L 175.816406 193.339844 L 176.5 193.394531 L 176.5 183.421875 "/>
<path style=" stroke:none;fill-rule:nonzero;fill:rgb(0%,38.398743%,14.498901%);fill-opacity:1;" d="M 177.882813 183.378906 L 177.207031 183.402344 L 177.207031 193.46875 L 177.882813 193.535156 L 177.882813 183.378906 "/>
<path style=" stroke:none;fill-rule:nonzero;fill:rgb(0%,38.398743%,14.498901%);fill-opacity:1;" d="M 180.640625 183.3125 L 179.972656 183.328125 L 179.972656 193.730469 L 180.640625 193.796875 L 180.640625 183.3125 "/>
<path style=" stroke:none;fill-rule:nonzero;fill:rgb(0%,38.398743%,14.498901%);fill-opacity:1;" d="M 179.257813 183.351563 L 178.589844 183.355469 L 178.589844 193.597656 L 179.257813 193.664063 L 179.257813 183.351563 "/>
<path style=" stroke:none;fill-rule:nonzero;fill:rgb(0%,38.398743%,14.498901%);fill-opacity:1;" d="M 171.003906 183.566406 L 170.332031 183.582031 L 170.332031 192.808594 L 171.003906 192.878906 L 171.003906 183.566406 "/>
<path style=" stroke:none;fill-rule:nonzero;fill:rgb(0%,38.398743%,14.498901%);fill-opacity:1;" d="M 211.949219 175.535156 L 176.386719 175.828125 L 176.386719 177.914063 L 211.949219 178.976563 L 211.949219 175.535156 "/>
<path style=" stroke:none;fill-rule:nonzero;fill:rgb(0%,38.398743%,14.498901%);fill-opacity:1;" d="M 211.949219 170.144531 L 176.386719 173 L 176.386719 174.867188 L 211.949219 174.710938 L 211.949219 170.144531 "/>
<path style=" stroke:none;fill-rule:nonzero;fill:rgb(0%,38.398743%,14.498901%);fill-opacity:1;" d="M 135.027344 179.777344 L 131.730469 181.644531 L 131.730469 196.933594 L 135.027344 199.039063 L 135.027344 179.777344 "/>
<path style=" stroke:none;fill-rule:nonzero;fill:rgb(0%,38.398743%,14.498901%);fill-opacity:1;" d="M 138.675781 176.511719 L 168.730469 180.34375 L 168.730469 181.457031 L 160.160156 181.71875 L 160.160156 189.351563 L 146.175781 193.023438 L 146.175781 199.105469 L 138.675781 202.046875 Z M 138.527344 171.820313 L 141.734375 172.25 L 141.734375 169.132813 L 160.304688 171.554688 L 160.304688 174.703125 L 168.796875 175.828125 L 168.796875 179.304688 L 138.527344 175.296875 Z M 136.679688 175.652344 L 130.070313 179.089844 L 130.070313 175.394531 L 136.679688 171.648438 Z M 136.679688 202.066406 L 130.070313 197.839844 L 130.070313 180.675781 L 136.679688 176.933594 Z M 175.390625 157.351563 L 213.144531 142.449219 L 213.144531 202.480469 L 199.464844 196.027344 L 199.574219 182.015625 L 211.949219 182.914063 L 211.949219 180.453125 L 176.386719 178.730469 L 176.386719 181.253906 L 175.390625 181.277344 Z M 184.953125 149.699219 L 209.535156 140.007813 L 209.535156 142.746094 L 184.953125 152.433594 Z M 214.652344 141.578125 L 226.054688 151.921875 L 226.054688 196.785156 L 214.652344 202.339844 Z M 198.503906 195.460938 L 191.515625 203.917969 L 191.515625 182.339844 L 198.503906 184.449219 Z M 190.351563 204.003906 L 175.9375 202.640625 L 175.9375 198.292969 L 170.570313 198.292969 L 170.570313 202.136719 L 147.289063 199.953125 L 147.289063 194.613281 L 159.761719 194.613281 L 159.761719 192.769531 L 151.515625 192.769531 L 161.273438 190.21875 L 161.273438 182.792969 L 190.351563 181.953125 Z M 172.5 212.253906 C 179.921875 214.914063 186.457031 217.40625 199.824219 217.421875 C 217.589844 217.457031 228.675781 211.691406 233.027344 207.027344 C 233.121094 206.929688 233.226563 206.84375 233.335938 206.761719 L 233.335938 112.183594 C 174.300781 113.230469 125.390625 155.71875 114.382813 211.804688 C 119.105469 209.976563 128.261719 206.742188 141.734375 206.78125 C 156.863281 206.765625 165.085938 209.570313 172.5 212.253906 "/>
<path style=" stroke:none;fill-rule:nonzero;fill:rgb(0%,38.398743%,14.498901%);fill-opacity:1;" d="M 199.636719 230.65625 C 185.78125 230.65625 178.160156 227.839844 170.839844 225.191406 C 163.460938 222.554688 156.3125 220.039063 141.734375 220.015625 C 124.683594 220.078125 116.429688 224.949219 112.441406 226.039063 C 112.238281 228.660156 112.109375 231.300781 112.070313 233.960938 L 233.335938 233.960938 L 233.335938 222.460938 C 226.726563 227.179688 215.597656 230.625 199.824219 230.65625 C 199.761719 230.65625 199.695313 230.65625 199.636719 230.65625 "/>
<path style=" stroke:none;fill-rule:nonzero;fill:rgb(0%,38.398743%,14.498901%);fill-opacity:1;" d="M 172.5 220.574219 C 179.921875 223.234375 186.457031 225.722656 199.824219 225.746094 C 217.683594 225.785156 228.800781 220.882813 233.027344 216.324219 C 233.121094 216.222656 233.226563 216.140625 233.335938 216.058594 L 233.335938 213.242188 C 226.789063 218.132813 215.640625 222.316406 199.824219 222.335938 C 199.773438 222.335938 199.726563 222.335938 199.6875 222.335938 C 185.800781 222.335938 178.171875 219.523438 170.839844 216.871094 C 163.460938 214.234375 156.3125 211.714844 141.734375 211.695313 C 125.96875 211.75 117.71875 215.917969 113.417969 217.40625 C 113.257813 218.492188 113.109375 219.582031 112.976563 220.675781 C 117.121094 219.0625 126.75 215.058594 141.734375 215.109375 C 156.863281 215.085938 165.085938 217.894531 172.5 220.574219 "/>
<path style=" stroke:none;fill-rule:nonzero;fill:rgb(0%,38.398743%,14.498901%);fill-opacity:1;" d="M 211.949219 163.855469 L 176.386719 170.179688 L 176.386719 172.265625 L 211.949219 168.914063 L 211.949219 163.855469 "/>
<path style=" stroke:none;fill-rule:nonzero;fill:rgb(0%,38.398743%,14.498901%);fill-opacity:1;" d="M 211.949219 152.996094 L 176.386719 163.664063 L 176.386719 165.753906 L 211.949219 157.300781 L 211.949219 152.996094 "/>
<path style=" stroke:none;fill-rule:nonzero;fill:rgb(0%,38.398743%,14.498901%);fill-opacity:1;" d="M 211.949219 144.820313 L 176.386719 158.351563 L 176.386719 159.917969 L 211.949219 147.65625 L 211.949219 144.820313 "/>
<path style=" stroke:none;fill-rule:nonzero;fill:rgb(0%,38.398743%,14.498901%);fill-opacity:1;" d="M 211.949219 148.789063 L 176.386719 160.820313 L 176.386719 162.90625 L 211.949219 151.871094 L 211.949219 148.789063 "/>
<path style=" stroke:none;fill-rule:nonzero;fill:rgb(0%,38.398743%,14.498901%);fill-opacity:1;" d="M 211.949219 158.226563 L 176.386719 166.929688 L 176.386719 169.019531 L 211.949219 162.710938 L 211.949219 158.226563 "/>
<path style=" stroke:none;fill-rule:nonzero;fill:rgb(0%,38.398743%,14.498901%);fill-opacity:1;" d="M 163.050781 183.746094 L 162.371094 183.765625 L 162.371094 192.160156 L 163.050781 192.230469 L 163.050781 183.746094 "/>
<path style=" stroke:none;fill-rule:nonzero;fill:rgb(0%,38.398743%,14.498901%);fill-opacity:1;" d="M 188.886719 183.089844 L 188.199219 183.089844 L 188.199219 194.507813 L 188.886719 194.574219 L 188.886719 183.089844 "/>
<path style=" stroke:none;fill-rule:nonzero;fill:rgb(0%,38.398743%,14.498901%);fill-opacity:1;" d="M 340.386719 216.726563 L 248.429688 216.726563 C 247.816406 216.726563 247.3125 216.355469 247.3125 215.898438 C 247.3125 215.441406 247.816406 215.078125 248.429688 215.078125 L 257.683594 215.082031 C 257.683594 214.472656 258.171875 213.980469 258.777344 213.980469 L 330.273438 213.980469 C 330.578125 213.605469 330.71875 212.996094 330.578125 212.027344 C 330.488281 211.460938 330.769531 211.28125 331.257813 211.363281 C 331.886719 212.003906 334.410156 213.464844 336.402344 213.980469 L 340.386719 213.980469 C 340.988281 213.980469 341.492188 214.472656 341.492188 215.082031 L 341.492188 215.621094 C 341.492188 216.230469 340.988281 216.726563 340.386719 216.726563 Z M 327.824219 208.921875 C 327.824219 209.527344 327.339844 210.015625 326.726563 210.015625 L 262.441406 210.015625 C 261.828125 210.015625 261.335938 209.527344 261.335938 208.921875 C 261.335938 208.308594 261.828125 207.824219 262.441406 207.824219 L 326.726563 207.824219 C 327.339844 207.824219 327.824219 208.308594 327.824219 208.921875 Z M 244.644531 195.917969 C 244.035156 195.917969 243.539063 195.519531 243.539063 195.035156 C 243.539063 194.542969 244.035156 194.148438 244.644531 194.148438 L 260.007813 194.148438 C 260.617188 194.148438 261.109375 194.542969 261.109375 195.035156 C 261.109375 195.519531 260.617188 195.917969 260.007813 195.917969 L 258.59375 195.917969 C 257.84375 196.46875 257.582031 197.394531 257.582031 198.445313 C 257.582031 199.90625 258.996094 201.128906 260.886719 201.4375 L 264.796875 201.4375 C 267.390625 199.984375 274.195313 197.113281 272.921875 199.445313 C 272.53125 200.132813 273.425781 200.855469 274.523438 201.4375 L 323.179688 201.4375 C 324.273438 200.855469 325.164063 200.132813 324.785156 199.445313 C 323.8125 197.664063 327.519531 198.910156 330.5 200.242188 C 330.945313 200.226563 331.335938 200.207031 331.558594 200.214844 C 334.863281 200.285156 335.808594 196.597656 339.671875 195.929688 C 338.359375 197.101563 337.535156 198.8125 337.535156 200.707031 C 337.535156 202.292969 338.117188 203.746094 339.066406 204.863281 C 336.539063 204.625 334.933594 204.871094 333.335938 205.714844 C 333.140625 206.046875 332.773438 206.273438 332.367188 206.273438 C 332.058594 206.476563 331.753906 206.699219 331.410156 206.964844 C 330.945313 207.027344 330.527344 206.746094 330.148438 206.273438 L 254.691406 206.273438 C 254.167969 206.273438 253.738281 205.90625 253.617188 205.414063 C 252.339844 203.929688 246.914063 197.699219 245.589844 195.917969 Z M 244.644531 189.832031 L 259.867188 189.832031 C 260.480469 189.832031 260.972656 190.152344 260.972656 190.558594 C 260.972656 190.96875 260.480469 191.292969 259.867188 191.292969 L 244.644531 191.292969 C 244.035156 191.292969 243.539063 190.96875 243.539063 190.558594 C 243.539063 190.152344 244.035156 189.832031 244.644531 189.832031 Z M 250.003906 174.152344 C 250.976563 184.519531 253.179688 180.019531 253.355469 183.492188 C 253.445313 185.261719 252.863281 186.71875 250.003906 186.71875 C 247.144531 186.71875 245.1875 185.136719 245.1875 181.664063 C 245.1875 178.195313 249.746094 171.308594 250.003906 174.152344 Z M 277.984375 193.230469 L 278.226563 192.914063 C 285.417969 192.347656 291.121094 191.496094 293.652344 189.5625 L 293.925781 186.6875 C 293.925781 186.078125 294.421875 185.585938 295.023438 185.585938 C 295.023438 185.585938 296.726563 184.863281 298.074219 184.863281 C 299.421875 184.863281 301.289063 185.585938 301.289063 185.585938 C 301.894531 185.585938 302.398438 186.078125 302.398438 186.6875 L 302.113281 189.636719 C 304.703125 191.523438 310.609375 192.359375 317.765625 192.921875 L 318.457031 193.230469 C 319.78125 193.527344 320.804688 194.523438 321.101563 195.804688 C 321.226563 196.019531 321.242188 196.859375 321.164063 197.085938 L 275.28125 197.085938 C 275.28125 197.085938 275.140625 196.71875 275.140625 196.585938 C 275.140625 194.894531 276.371094 193.484375 277.984375 193.230469 Z M 238.226563 112.183594 L 238.226563 233.960938 L 359.066406 233.960938 C 358.128906 167.417969 304.628906 113.59375 238.226563 112.183594 "/>
<path style=" stroke:none;fill-rule:nonzero;fill:rgb(0%,38.398743%,14.498901%);fill-opacity:1;" d="M 182.53125 270.089844 C 185.136719 270.089844 186.292969 267.941406 186.210938 265.328125 C 186.132813 263.03125 185.367188 262.03125 183.597656 258.96875 C 181.144531 260.726563 178.925781 263.492188 178.773438 265.792969 C 178.597656 268.46875 180.585938 270.089844 182.53125 270.089844 "/>
<path style=" stroke:none;fill-rule:nonzero;fill:rgb(0%,38.398743%,14.498901%);fill-opacity:1;" d="M 226.0625 281.742188 C 226.0625 281.742188 226.074219 283.8125 223.078125 283.8125 L 218.835938 283.8125 L 219.019531 283.351563 C 220.019531 280.742188 223.3125 255.820313 223.617188 253.75 C 223.925781 251.675781 222.011719 251.140625 221.707031 253.058594 C 221.628906 253.515625 221.292969 254.859375 220.8125 256.679688 C 219.980469 255.292969 218.304688 254.96875 216.867188 253.515625 L 216.355469 253.769531 C 214.292969 255.371094 213.890625 256.664063 213.804688 258.273438 C 213.652344 261.261719 216.003906 262.261719 217.941406 262.261719 C 218.480469 262.261719 218.984375 262.101563 219.4375 261.835938 C 217.957031 267.296875 216.277344 273.445313 216.105469 274.53125 C 215.792969 276.453125 215.414063 278.902344 214.878906 279.597656 C 214.34375 280.285156 210.359375 286.769531 209.824219 287.652344 C 209.648438 287.9375 209.507813 288.195313 209.40625 288.429688 L 209.402344 288.429688 C 208.871094 289.621094 209.152344 290.257813 209.289063 291.800781 C 209.4375 293.628906 210.125 295.929688 210.285156 297.015625 C 210.433594 298.082031 209.976563 298.933594 209.4375 299.617188 C 208.855469 300.371094 206.910156 302.074219 206.679688 302.992188 C 206.371094 304.234375 204.992188 304.753906 204.457031 302.992188 C 203.921875 301.226563 203.691406 299.007813 203.691406 298.082031 C 203.691406 297.160156 203.226563 296.082031 203.921875 295.320313 C 204.441406 294.734375 206.832031 290.828125 208.210938 288.417969 L 208.214844 288.417969 C 208.644531 287.652344 208.984375 287.035156 209.128906 286.730469 C 209.742188 285.414063 210.820313 284.507813 210.820313 282.824219 C 210.820313 281.507813 210.863281 264.179688 210.820313 262.875 C 210.738281 260.808594 210.125 259.113281 209.4375 261.113281 C 208.742188 263.105469 206.679688 275.449219 206.753906 277.136719 C 206.824219 278.636719 205.8125 280.003906 205.210938 280.835938 C 204.804688 278.449219 203.4375 278.035156 201.699219 276.222656 C 199.246094 277.988281 199.085938 279.417969 199.085938 281.132813 C 199.085938 282.84375 200.210938 284.652344 202.152344 284.652344 C 202.507813 284.652344 202.839844 284.621094 203.152344 284.535156 C 203.101563 284.824219 203.078125 285.148438 203.078125 285.507813 C 203.078125 286.730469 202.152344 287.574219 201.921875 287.878906 C 201.832031 288.007813 201.675781 288.191406 201.488281 288.425781 C 200.382813 289.757813 197.894531 292.539063 196.789063 293.785156 C 195.988281 294.683594 195.695313 295.773438 195.945313 297.230469 C 196.332031 299.46875 196.824219 302.351563 197.171875 303.453125 C 197.632813 304.90625 198.011719 306.136719 196.945313 306.289063 C 195.863281 306.4375 184.753906 303.988281 183.832031 303.835938 C 182.914063 303.683594 182.148438 303.148438 181.996094 301.683594 C 181.84375 300.226563 181.996094 291.714844 181.84375 290.484375 C 181.703125 289.414063 181.691406 288.929688 182.300781 288.410156 L 182.316406 288.410156 C 182.40625 288.332031 182.503906 288.261719 182.605469 288.1875 C 183.523438 287.574219 193.320313 275.285156 194.03125 274.371094 C 195.410156 272.609375 196.25 272.925781 195.410156 269.324219 C 195.101563 268.027344 192.957031 260.109375 193.03125 258.046875 C 193.039063 257.867188 193.019531 257.710938 192.984375 257.535156 L 200.925781 259.273438 C 203.003906 259.964844 204.378906 259.886719 206.679688 258.65625 L 216.355469 253.769531 L 216.800781 253.449219 L 223.539063 250.148438 C 224.542969 249.457031 226.226563 249.457031 226.21875 251.367188 C 226.21875 251.367188 226.074219 283.210938 226.0625 281.742188 Z M 222.851563 316.410156 L 206.742188 316.410156 C 206.628906 315.175781 206.261719 314.378906 206.988281 313.570313 C 207.75 312.734375 215.238281 302.789063 215.953125 301.914063 C 216.644531 301.070313 216.800781 300.378906 216.5625 298.246094 C 216.390625 296.582031 215.644531 293.480469 215.414063 292.789063 C 215.179688 292.09375 214.929688 291.304688 215.644531 290.027344 C 215.902344 289.574219 216.210938 289.019531 216.542969 288.410156 L 216.550781 288.410156 C 216.703125 288.105469 216.867188 287.800781 217.027344 287.488281 L 217.3125 288.425781 L 225.003906 313.886719 C 225.53125 315.414063 224.773438 316.339844 222.851563 316.410156 Z M 205.136719 341.898438 C 205.136719 342.511719 204.636719 343 204.023438 343 L 199.679688 345.429688 C 199.078125 345.429688 198.578125 344.9375 198.578125 344.320313 L 199.792969 319.527344 C 199.792969 318.925781 200.566406 317.894531 201.179688 317.894531 L 204.066406 317.683594 C 204.679688 317.683594 205.136719 318.925781 205.136719 319.527344 Z M 173.027344 314.417969 L 175.328125 311.886719 C 176.167969 311.050781 175.175781 310.277344 174.171875 310.347656 L 148.949219 310.347656 C 148.035156 310.347656 147.46875 309.964844 147.46875 309.125 L 147.46875 302.832031 C 147.644531 301.535156 147.03125 300.675781 145.96875 300.675781 L 139.976563 300.675781 C 139.976563 300.675781 137.6875 300.921875 138.296875 298.847656 L 141.394531 288.425781 L 143.65625 280.824219 C 144.425781 278.289063 143.96875 276.984375 141.898438 278.449219 L 137.066406 280.902344 C 135.15625 281.664063 134.496094 279.519531 134.496094 279.519531 L 134.496094 249.402344 C 134.464844 246.996094 134.078125 245.15625 136.914063 245.316406 L 158.121094 249.933594 C 157.769531 253.441406 156.011719 258.433594 155.257813 261.316406 C 154.4375 260.125 152.9375 259.183594 151.636719 257.277344 C 149.945313 259.578125 148.800781 261.28125 148.800781 262.980469 C 148.800781 264.707031 150.53125 266.484375 152.480469 266.484375 C 153.683594 266.484375 154.742188 265.792969 155.335938 264.863281 C 156.800781 269.851563 159.386719 276.390625 159.835938 277.523438 C 160.148438 278.289063 157.765625 281.820313 157.230469 282.898438 C 156.6875 283.972656 155.488281 285.308594 154.621094 283.890625 C 154.015625 282.898438 152.9375 280.671875 150.328125 276.453125 C 149.847656 275.667969 149.183594 264.253906 148.261719 261.417969 C 148.007813 260.617188 147.03125 260.574219 147.03125 262.648438 C 147.03125 264.714844 146.34375 277.449219 146.34375 278.757813 C 146.34375 280.058594 146.734375 279.980469 147.261719 281.664063 C 147.550781 282.566406 149.179688 285.585938 150.722656 288.410156 L 141.394531 288.425781 L 150.722656 288.425781 C 152.097656 290.90625 153.417969 293.253906 153.710938 293.867188 C 154.316406 295.164063 155.695313 297.390625 157.382813 298.546875 C 159.070313 299.695313 169.882813 305.753906 171.414063 306.90625 C 172.941406 308.050781 175.859375 309.203125 177.773438 309.355469 C 179.695313 309.507813 195.640625 311.734375 197.554688 312.128906 C 199.402344 312.488281 199.613281 313.210938 199.351563 316.410156 L 174.558594 316.410156 C 172.867188 316.488281 171.796875 315.878906 173.027344 314.417969 Z M 160.988281 251.058594 C 161.035156 250.890625 161.058594 250.734375 161.039063 250.574219 L 171.101563 252.765625 C 169.328125 254.40625 169.035156 256.339844 169.035156 257.851563 C 169.035156 259.570313 170.308594 261.035156 172.257813 261.035156 C 172.59375 261.035156 172.914063 260.976563 173.207031 260.875 C 173.132813 261.121094 173.070313 261.394531 173.027344 261.726563 C 172.792969 263.25 172.484375 263.335938 171.949219 263.871094 C 171.414063 264.402344 171.949219 265.328125 171.871094 267.550781 C 171.851563 268.273438 172.011719 269.109375 172.25 269.988281 C 171.335938 268.96875 169.980469 268.316406 168.804688 267.101563 C 166.355469 268.859375 165.96875 271.09375 165.96875 272.808594 C 165.96875 274.519531 167.9375 276.21875 169.882813 276.21875 C 171.578125 276.21875 173.046875 274.773438 173.296875 273.265625 C 173.539063 274.007813 173.726563 274.679688 173.785156 275.226563 C 174.023438 277.136719 176.550781 282.132813 176.550781 283.738281 C 176.550781 284.359375 176.5625 286.234375 176.542969 288.433594 C 176.519531 291.945313 176.414063 296.222656 176.085938 297.542969 C 175.554688 299.695313 175.554688 301.683594 174.25 301.148438 C 172.941406 300.613281 162.75 294.171875 161.753906 292.789063 C 160.753906 291.410156 160.753906 291.179688 161.445313 289.878906 C 161.746094 289.316406 162.058594 288.898438 162.347656 288.476563 L 162.214844 288.800781 C 161.597656 290.40625 162.0625 293.785156 165.664063 293.785156 C 167.613281 293.785156 169.207031 292.039063 169.339844 290.339844 C 169.398438 289.671875 169.207031 289.035156 168.882813 288.425781 C 168.246094 287.257813 167.074219 286.152344 165.96875 285.039063 C 164.34375 286.023438 163.484375 286.769531 162.972656 287.414063 C 163.089844 287.148438 163.203125 286.851563 163.289063 286.492188 C 163.664063 284.960938 164.441406 282.273438 165.125 280.824219 C 165.820313 279.363281 166.425781 277.988281 165.511719 275.917969 C 164.597656 273.847656 160.679688 264.863281 160.449219 263.25 C 160.222656 261.648438 160.449219 252.90625 160.988281 251.058594 Z M 178.824219 254.445313 C 178.089844 256.507813 175.992188 258.769531 174.980469 259.453125 C 175.339844 258.859375 175.527344 258.175781 175.480469 257.507813 C 175.289063 255.058594 174.324219 254.367188 172.972656 253.175781 Z M 190.28125 256.945313 C 190.457031 259.566406 190.59375 265.050781 190.734375 266.402344 C 190.914063 268.179688 191.117188 269.234375 190.578125 270.160156 C 190.035156 271.078125 183.90625 277.449219 183.292969 278.066406 C 182.792969 278.566406 181.609375 279.519531 181.226563 278.289063 C 180.839844 277.070313 178.691406 271.226563 178.164063 270.160156 C 177.625 269.089844 177.394531 267.242188 178.003906 265.941406 C 178.558594 264.773438 181.695313 257.863281 183.441406 255.457031 Z M 112.097656 238.867188 C 113.738281 304.929688 167.1875 358.121094 233.335938 359.292969 L 233.335938 238.867188 L 112.097656 238.867188 "/>
<path style=" stroke:none;fill-rule:nonzero;fill:rgb(0%,38.398743%,14.498901%);fill-opacity:1;" d="M 278.578125 303.621094 C 274.171875 303.554688 270.066406 302.328125 266.515625 300.226563 C 266.835938 299.566406 267.191406 298.917969 267.574219 298.300781 C 270.613281 300.101563 274.105469 301.203125 277.828125 301.386719 C 278.121094 302.105469 278.371094 302.855469 278.578125 303.621094 Z M 279.046875 305.835938 C 279.183594 306.777344 279.253906 307.742188 279.261719 308.726563 C 278.996094 308.886719 278.828125 309.132813 278.714844 309.4375 C 278.007813 311.300781 277.996094 311.3125 277.996094 311.3125 C 277.757813 311.648438 277.332031 311.847656 276.898438 311.761719 C 275.042969 311.664063 273.296875 311.421875 271.558594 311.015625 C 271.167969 310.925781 270.773438 310.828125 270.386719 310.726563 L 269.355469 310.429688 C 269.179688 310.296875 269.050781 310.121094 268.972656 309.910156 L 268.921875 309.34375 L 268.769531 307.6875 C 268.703125 307.109375 268.496094 306.699219 268.011719 306.445313 C 266.9375 306.011719 265.933594 305.539063 264.933594 305.007813 C 265.121094 304.078125 265.359375 303.167969 265.660156 302.296875 C 269.585938 304.542969 274.121094 305.835938 278.976563 305.835938 Z M 271.921875 292.085938 C 266.824219 295.746094 263.464844 301.871094 263.464844 308.816406 C 263.464844 315.773438 266.824219 321.890625 271.921875 325.558594 C 277.007813 321.890625 280.359375 315.773438 280.359375 308.816406 C 280.359375 301.871094 277.007813 295.746094 271.921875 292.085938 "/>
<path style=" stroke:none;fill-rule:nonzero;fill:rgb(0%,38.398743%,14.498901%);fill-opacity:1;" d="M 249.746094 293.726563 C 248.898438 292.074219 248.246094 290.4375 247.714844 288.726563 C 247.605469 288.34375 247.492188 287.953125 247.390625 287.5625 L 247.132813 286.523438 C 247.15625 286.296875 247.234375 286.097656 247.386719 285.929688 L 247.84375 285.601563 L 248.605469 285.058594 L 252.894531 285.058594 C 253.386719 287.175781 254.117188 289.195313 255.070313 291.089844 C 254.429688 292.082031 253.832031 293.105469 253.304688 294.152344 C 253.101563 294.097656 252.890625 294.097656 252.675781 294.132813 L 250.683594 294.449219 C 250.269531 294.410156 249.894531 294.144531 249.746094 293.726563 Z M 257.453125 285.058594 C 257.648438 285.746094 257.867188 286.4375 258.121094 287.101563 C 257.570313 287.722656 257.039063 288.363281 256.53125 289.027344 C 255.96875 287.753906 255.515625 286.433594 255.167969 285.058594 Z M 250.921875 308.816406 C 250.921875 298.703125 255.703125 289.710938 263.117188 283.957031 L 245.988281 283.957031 L 245.988281 333.683594 L 263.117188 333.683594 C 255.703125 327.9375 250.921875 318.933594 250.921875 308.816406 "/>
<path style=" stroke:none;fill-rule:nonzero;fill:rgb(0%,38.398743%,14.498901%);fill-opacity:1;" d="M 313.289063 286.355469 C 314.328125 286.226563 315.375 286.167969 316.445313 286.167969 C 323.332031 286.167969 329.554688 289.007813 334.011719 293.566406 C 333.960938 299.46875 331.832031 304.859375 328.316406 309.066406 C 328.316406 298.8125 322.117188 290.074219 313.289063 286.355469 Z M 326.59375 310.941406 C 322.167969 315.234375 316.132813 317.894531 309.472656 317.894531 C 308.125 317.894531 306.8125 317.78125 305.523438 317.574219 C 313.40625 313.488281 318.789063 305.257813 318.789063 295.765625 C 318.789063 294.332031 318.664063 292.921875 318.4375 291.550781 C 323.453125 296.054688 326.617188 302.582031 326.617188 309.847656 C 326.617188 310.214844 326.605469 310.578125 326.59375 310.941406 Z M 290.144531 308.449219 C 291.699219 308.769531 293.3125 308.933594 294.96875 308.933594 C 304.707031 308.933594 313.125 303.246094 317.082031 295.019531 C 316.980469 304.753906 311.222656 313.132813 302.949219 317.015625 C 297.808594 315.597656 293.332031 312.550781 290.144531 308.449219 Z M 288.476563 310.410156 C 288.089844 310.527344 287.710938 310.644531 287.316406 310.746094 L 286.273438 311.003906 C 286.0625 310.980469 285.851563 310.894531 285.6875 310.746094 L 285.355469 310.28125 L 284.398438 308.933594 C 284.050781 308.445313 283.644531 308.191406 283.0625 308.234375 L 282.675781 308.289063 C 282.660156 307.378906 282.578125 306.488281 282.464844 305.605469 C 283.84375 305.425781 285.199219 305.136719 286.511719 304.753906 C 287.441406 306.621094 288.59375 308.351563 289.917969 309.929688 C 289.445313 310.109375 288.960938 310.269531 288.476563 310.410156 Z M 281.4375 301.277344 C 282.617188 301.148438 283.773438 300.9375 284.886719 300.617188 C 285.101563 301.339844 285.332031 302.035156 285.605469 302.71875 C 284.464844 303.039063 283.265625 303.277344 282.054688 303.429688 C 281.886719 302.703125 281.675781 301.984375 281.4375 301.277344 Z M 271.921875 327.023438 C 266.109375 323.214844 262.261719 316.480469 262.261719 308.816406 C 262.261719 301.160156 266.109375 294.429688 271.921875 290.609375 C 277.71875 294.429688 281.578125 301.160156 281.578125 308.816406 C 281.578125 316.480469 277.71875 323.214844 271.921875 327.023438 Z M 258.328125 292.363281 C 258.777344 291.703125 259.253906 291.074219 259.753906 290.460938 C 261.085938 292.699219 262.78125 294.683594 264.777344 296.324219 C 264.382813 296.953125 264.003906 297.597656 263.667969 298.269531 C 261.589844 296.605469 259.789063 294.617188 258.328125 292.363281 Z M 255.65625 297.144531 C 256.078125 296.222656 256.539063 295.3125 257.046875 294.410156 C 258.632813 296.664063 260.550781 298.675781 262.738281 300.347656 C 262.015625 302.195313 261.519531 304.1875 261.289063 306.253906 C 260.976563 306.300781 260.65625 306.222656 260.394531 305.992188 C 258.859375 304.957031 257.488281 303.839844 256.207031 302.601563 C 255.921875 302.320313 255.632813 302.039063 255.355469 301.742188 L 254.621094 300.957031 C 254.535156 300.765625 254.515625 300.523438 254.554688 300.324219 L 254.8125 299.804688 L 255.523438 298.304688 C 255.71875 297.90625 255.503906 296.964844 255.65625 297.144531 Z M 244.777344 334.902344 L 244.777344 282.746094 L 267.070313 282.746094 C 258.140625 287.992188 252.136719 297.703125 252.136719 308.816406 C 252.136719 319.9375 258.140625 329.644531 267.070313 334.902344 Z M 246.28125 277.035156 C 246.375 275.183594 246.628906 273.433594 247.027344 271.691406 C 247.121094 271.296875 247.222656 270.898438 247.320313 270.507813 L 247.617188 269.484375 C 247.746094 269.308594 247.925781 269.167969 248.132813 269.097656 L 248.695313 269.050781 L 250.359375 268.894531 C 250.953125 268.839844 251.371094 268.613281 251.621094 268.089844 C 252 267.144531 252.425781 266.21875 252.902344 265.308594 C 253.21875 264.6875 253.125 264.148438 252.757813 263.714844 C 251.507813 262.171875 251.496094 262.152344 251.496094 262.152344 C 251.3125 261.773438 251.367188 261.316406 251.65625 260.972656 C 252.652344 259.421875 253.753906 258.023438 254.96875 256.71875 C 255.238281 256.433594 255.519531 256.136719 255.8125 255.859375 L 256.578125 255.105469 C 256.78125 255.019531 257.007813 254.992188 257.214844 255.027344 L 257.730469 255.273438 L 259.246094 255.96875 C 259.769531 256.207031 260.234375 256.234375 260.699219 255.925781 C 261.695313 255.15625 262.707031 254.464844 263.765625 253.820313 L 264.121094 253.613281 C 264.40625 253.285156 264.5 252.90625 264.429688 252.484375 L 264.15625 250.496094 C 264.191406 250.089844 264.472656 249.703125 264.890625 249.566406 C 266.558594 248.746094 268.210938 248.121094 269.921875 247.625 C 270.308594 247.511719 270.691406 247.414063 271.089844 247.320313 L 272.136719 247.074219 C 272.355469 247.101563 272.5625 247.199219 272.730469 247.34375 L 273.046875 247.8125 L 273.988281 249.191406 C 274.242188 249.566406 274.554688 249.8125 274.949219 249.882813 L 277.183594 250.285156 C 277.570313 249.902344 277.839844 249.695313 277.976563 249.683594 C 278.535156 249.59375 278.871094 249.265625 279.046875 248.792969 L 279.769531 246.917969 C 280.011719 246.570313 280.421875 246.390625 280.859375 246.46875 C 282.714844 246.558594 284.46875 246.808594 286.199219 247.203125 C 286.585938 247.300781 286.980469 247.398438 287.371094 247.507813 L 288.40625 247.804688 C 288.585938 247.929688 288.71875 248.105469 288.792969 248.316406 L 288.839844 248.886719 L 288.988281 250.535156 C 289.039063 250.992188 289.179688 251.347656 289.476563 251.59375 C 289.859375 251.742188 290.257813 251.90625 290.640625 252.070313 L 290.878906 252.171875 L 291.261719 252.347656 L 291.464844 252.4375 C 291.898438 252.640625 292.304688 252.851563 292.714844 253.066406 C 293.34375 253.386719 293.867188 253.285156 294.304688 252.921875 C 295.847656 251.664063 295.867188 251.664063 295.867188 251.664063 C 296.242188 251.476563 296.695313 251.515625 297.050781 251.8125 C 298.601563 252.820313 299.992188 253.910156 301.289063 255.125 C 301.589844 255.402344 301.882813 255.683594 302.164063 255.96875 L 302.902344 256.738281 C 302.988281 256.945313 303.019531 257.167969 302.980469 257.382813 L 302.742188 257.894531 L 302.050781 259.40625 C 301.804688 259.960938 301.78125 260.429688 302.121094 260.910156 C 302.742188 261.710938 303.339844 262.558594 303.882813 263.410156 C 304.265625 264.003906 304.769531 264.171875 305.324219 264.082031 C 307.296875 263.765625 307.3125 263.769531 307.3125 263.769531 C 307.722656 263.800781 308.101563 264.070313 308.257813 264.480469 C 308.796875 265.554688 309.273438 266.613281 309.683594 267.703125 C 307.414063 267.703125 305.414063 267.941406 303.492188 268.40625 C 299.375 258.9375 289.9375 252.335938 278.976563 252.335938 C 264.191406 252.335938 252.230469 264.308594 252.230469 279.082031 C 252.230469 279.9375 252.269531 280.792969 252.347656 281.636719 L 249.628906 281.636719 C 249.582031 281.140625 249.550781 280.652344 249.53125 280.152344 C 249.496094 279.453125 249.152344 279.042969 248.605469 278.847656 C 246.746094 278.144531 246.738281 278.121094 246.738281 278.121094 C 246.390625 277.890625 246.203125 277.464844 246.28125 277.035156 Z M 302.582031 286.089844 C 302.582031 289.679688 303.347656 293.097656 304.742188 296.171875 C 299.015625 291.679688 295.328125 284.691406 295.328125 276.84375 C 295.328125 275.570313 295.421875 274.3125 295.609375 273.097656 C 299.558594 270.386719 304.335938 268.800781 309.472656 268.800781 L 309.6875 268.800781 C 305.296875 273.238281 302.582031 279.351563 302.582031 286.089844 Z M 312.390625 268.976563 C 317.347656 269.5625 321.851563 271.632813 325.441406 274.714844 C 316.070313 275.449219 308.175781 281.457031 304.726563 289.773438 C 304.628906 288.839844 304.570313 287.894531 304.570313 286.945313 C 304.570313 279.839844 307.582031 273.453125 312.390625 268.976563 Z M 285.070313 290.917969 C 289.515625 297.160156 296.8125 301.246094 305.074219 301.246094 C 306.949219 301.246094 308.769531 301.03125 310.53125 300.628906 C 306.1875 304.554688 300.429688 306.9375 294.113281 306.9375 C 292.234375 306.9375 290.402344 306.71875 288.648438 306.324219 C 286.308594 302.558594 284.949219 298.109375 284.949219 293.351563 C 284.949219 292.523438 284.992188 291.714844 285.070313 290.917969 Z M 306.820313 299.535156 C 297.785156 299.453125 289.929688 294.480469 285.734375 287.132813 C 286.921875 282.597656 289.375 278.566406 292.6875 275.449219 C 292.648438 276.054688 292.621094 276.652344 292.621094 277.265625 C 292.621094 287.128906 298.4375 295.628906 306.820313 299.535156 Z M 256.785156 281.636719 L 254.5625 281.636719 C 254.484375 280.792969 254.4375 279.9375 254.4375 279.082031 C 254.4375 265.53125 265.421875 254.53125 278.976563 254.53125 C 288.929688 254.53125 297.5 260.480469 301.347656 269.007813 C 300.644531 269.253906 299.953125 269.519531 299.28125 269.816406 C 295.765625 262.101563 287.992188 256.742188 278.976563 256.742188 C 266.644531 256.742188 256.644531 266.753906 256.644531 279.082031 C 256.644531 279.941406 256.691406 280.792969 256.785156 281.636719 Z M 327.957031 277.207031 C 331.28125 281.027344 333.457031 285.871094 333.914063 291.210938 C 329.511719 287.019531 323.5625 284.445313 317.015625 284.445313 C 313.914063 284.445313 310.957031 285.019531 308.226563 286.078125 C 312.726563 280.652344 319.515625 277.191406 327.113281 277.191406 Z M 238.226563 238.867188 L 238.238281 359.28125 C 304.175781 357.890625 357.40625 304.789063 359.046875 238.867188 L 238.226563 238.867188 "/>
<path style=" stroke:none;fill-rule:nonzero;fill:rgb(0%,38.398743%,14.498901%);fill-opacity:1;" d="M 397.46875 397.46875 C 356.011719 438.925781 298.765625 464.554688 235.507813 464.554688 C 172.25 464.554688 115.003906 438.925781 73.539063 397.46875 C 32.089844 356.007813 6.453125 298.765625 6.453125 235.503906 C 6.453125 172.238281 32.089844 114.996094 73.539063 73.539063 C 115.003906 32.085938 172.25 6.453125 235.507813 6.453125 C 298.765625 6.453125 356.011719 32.085938 397.46875 73.539063 C 438.921875 114.996094 464.550781 172.238281 464.550781 235.503906 C 464.550781 298.765625 438.921875 356.007813 397.46875 397.46875 Z M 235.507813 0 C 105.4375 0 0 105.4375 0 235.503906 C 0 365.566406 105.4375 471 235.507813 471 C 365.574219 471 471.003906 365.566406 471.003906 235.503906 C 471.003906 105.4375 365.574219 0 235.507813 0 "/>
<path style=" stroke:none;fill-rule:nonzero;fill:rgb(0%,38.398743%,14.498901%);fill-opacity:1;" d="M 127.082031 311.273438 C 130.5 316.042969 134.6875 320.339844 138.59375 324.648438 C 142.820313 329.304688 146.449219 333.367188 151.140625 337.324219 L 148.566406 340.441406 L 150.933594 342.402344 L 155.460938 336.898438 L 154.257813 335.933594 C 149.210938 331.84375 145.457031 327.648438 140.867188 322.582031 C 136.5625 317.851563 132.09375 313.261719 128.757813 308.308594 L 127.902344 307.046875 L 121.855469 311.058594 L 123.554688 313.617188 L 127.082031 311.273438 "/>
<path style=" stroke:none;fill-rule:nonzero;fill:rgb(0%,38.398743%,14.498901%);fill-opacity:1;" d="M 139.132813 152.105469 L 140.125 150.96875 L 137.238281 148.382813 L 135.199219 150.660156 L 135.1875 150.660156 L 135.835938 151.246094 C 132.117188 155.625 128.640625 160.304688 125.4375 165.277344 C 122.035156 170.570313 119.453125 174.578125 116.917969 180.011719 L 115.339844 179.292969 L 114.0625 182.082031 L 118.441406 184.085938 L 119.078125 182.667969 C 121.730469 176.714844 124.3125 172.691406 128.019531 166.929688 C 131.421875 161.652344 135.136719 156.710938 139.132813 152.105469 "/>
<path style=" stroke:none;fill-rule:nonzero;fill:rgb(0%,38.398743%,14.498901%);fill-opacity:1;" d="M 301.507813 121.355469 L 300.460938 123.121094 L 299.65625 124.449219 L 300.992188 125.238281 C 306.273438 128.285156 311.402344 131.75 316.332031 135.640625 C 321.652344 139.84375 325.019531 143.003906 329.511719 147.832031 L 330.554688 148.96875 L 333.765625 145.933594 L 331.648438 143.707031 L 330.6875 144.609375 C 326.632813 140.308594 323.222656 137.164063 318.230469 133.230469 C 313.609375 129.585938 308.808594 126.296875 303.882813 123.371094 L 304.144531 122.929688 L 301.507813 121.355469 "/>
<path style=" stroke:none;fill-rule:nonzero;fill:rgb(0%,38.398743%,14.498901%);fill-opacity:1;" d="M 279.046875 115.136719 C 285.535156 117.371094 289.640625 118.707031 295.402344 121.738281 L 296.769531 122.472656 L 298.761719 118.589844 L 296.039063 117.191406 L 295.453125 118.3125 C 290.15625 115.640625 285.988281 114.28125 280.046875 112.238281 C 274.464844 110.316406 268.84375 108.789063 263.207031 107.644531 L 263.71875 104.890625 L 260.703125 104.332031 L 259.628906 110.074219 L 261.136719 110.363281 C 267.132813 111.511719 273.117188 113.089844 279.046875 115.136719 "/>
<path style=" stroke:none;fill-rule:nonzero;fill:rgb(0%,38.398743%,14.498901%);fill-opacity:1;" d="M 190.671875 363.746094 L 192.964844 357.664063 L 191.515625 357.136719 C 185.367188 354.878906 180.035156 352.394531 174.117188 349.109375 C 168.632813 346.058594 163.460938 342.679688 158.613281 338.980469 L 157.402344 338.050781 L 152.8125 343.992188 L 155.238281 345.875 L 157.96875 342.332031 C 162.589844 345.765625 167.472656 348.921875 172.628906 351.792969 C 178.1875 354.878906 183.3125 357.304688 189.015625 359.472656 L 187.808594 362.664063 L 190.671875 363.746094 "/>
<path style=" stroke:none;fill-rule:nonzero;fill:rgb(0%,38.398743%,14.498901%);fill-opacity:1;" d="M 241.5625 372.253906 L 241.457031 368.140625 C 247.472656 367.9375 252.589844 367.238281 258.808594 366.15625 C 264.566406 365.15625 270.125 364.097656 275.625 362.421875 L 277.136719 366.777344 L 280.046875 365.773438 L 277.539063 358.589844 L 276.109375 359.058594 C 270.386719 360.925781 264.507813 362.042969 258.285156 363.132813 C 251.59375 364.289063 246.371094 364.988281 239.851563 365.113281 L 238.308594 365.136719 L 238.488281 372.335938 L 241.5625 372.253906 "/>
<path style=" stroke:none;fill-rule:nonzero;fill:rgb(0%,38.398743%,14.498901%);fill-opacity:1;" d="M 141.796875 145.113281 L 140.496094 143.878906 L 138.386719 146.109375 L 141.925781 149.457031 L 142.976563 148.324219 C 147.460938 143.523438 151.8125 139.535156 157.128906 135.328125 C 162.050781 131.457031 166.484375 128.601563 171.785156 125.523438 L 173.09375 124.769531 L 170.921875 120.863281 L 168.246094 122.355469 L 168.238281 122.355469 L 168.949219 123.636719 C 164.125 126.472656 159.867188 129.269531 155.230469 132.925781 C 150.230469 136.875 146.015625 140.6875 141.796875 145.113281 "/>
<path style=" stroke:none;fill-rule:nonzero;fill:rgb(0%,38.398743%,14.498901%);fill-opacity:1;" d="M 175.957031 118.15625 L 173.234375 119.558594 L 174.453125 121.921875 L 175.164063 123.292969 L 176.53125 122.574219 C 182.335938 119.515625 187.390625 117.347656 193.800781 115.136719 C 199.734375 113.089844 205.722656 111.511719 211.710938 110.363281 L 213.195313 110.082031 L 211.828125 102.363281 L 208.8125 102.894531 L 209.648438 107.644531 C 204.015625 108.789063 198.386719 110.308594 192.804688 112.238281 C 186.789063 114.304688 181.855469 116.382813 176.472656 119.148438 L 175.957031 118.15625 "/>
<path style=" stroke:none;fill-rule:nonzero;fill:rgb(0%,38.398743%,14.498901%);fill-opacity:1;" d="M 449.207031 253.929688 C 448.382813 264.320313 447.394531 272.195313 445.226563 281.8125 L 413.742188 274.613281 C 416.363281 262.332031 417.753906 249.59375 417.753906 236.527344 C 417.753906 233.101563 417.652344 229.699219 417.464844 226.316406 L 449.507813 223.9375 C 449.757813 228.1875 449.886719 232.449219 449.886719 236.75 C 449.886719 242.429688 449.667969 248.15625 449.207031 253.929688 Z M 404.921875 169.363281 L 434.335938 156.917969 C 437.992188 165.988281 440.726563 175.117188 443.203125 184.980469 C 445.738281 195.058594 447.054688 203.128906 448.0625 212.996094 L 416.613281 216.191406 C 414.792969 199.828125 410.800781 184.117188 404.921875 169.363281 Z M 441.820313 293.890625 C 439.101563 303.375 435.6875 312.785156 431.5625 322.058594 C 427.320313 331.582031 423.6875 338.523438 418.429688 346.882813 L 391.847656 330.042969 C 400.128906 316.289063 406.636719 301.347656 411.058594 285.527344 Z M 368.042969 229.984375 L 407.683594 227.042969 C 407.855469 230.183594 407.949219 233.34375 407.949219 236.527344 C 407.945313 248.84375 406.640625 260.851563 404.179688 272.429688 L 365.597656 263.605469 C 366.875 257.878906 367.300781 253.699219 367.796875 247.429688 C 368.070313 243.855469 368.210938 240.3125 368.210938 236.800781 C 368.210938 234.523438 368.152344 232.253906 368.042969 229.984375 Z M 383.554688 324.792969 L 380.035156 322.5625 L 378.402344 325.148438 L 381.949219 327.398438 C 381.191406 328.613281 380.417969 329.820313 379.628906 331.015625 L 375.996094 328.613281 L 374.304688 331.179688 L 377.914063 333.566406 C 371.925781 342.300781 365.152344 350.457031 357.691406 357.929688 C 354.367188 361.253906 350.902344 364.429688 347.320313 367.476563 L 344.777344 364.378906 L 342.414063 366.332031 L 342.402344 366.328125 L 344.964844 369.445313 C 343.898438 370.316406 342.824219 371.175781 341.742188 372.019531 L 339.207031 368.839844 L 336.804688 370.753906 L 339.304688 373.890625 C 326.828125 383.269531 313.035156 390.976563 298.25 396.695313 L 296.816406 393.035156 L 293.96875 394.164063 L 293.953125 394.152344 L 295.375 397.789063 C 294.015625 398.289063 292.644531 398.769531 291.269531 399.234375 L 290.355469 396.523438 L 287.457031 397.507813 L 288.355469 400.179688 C 273.835938 404.792969 258.472656 407.519531 242.554688 408.085938 L 242.460938 404.585938 L 239.40625 404.664063 L 239.390625 404.652344 L 239.480469 408.167969 C 238.445313 408.1875 237.40625 408.210938 236.363281 408.210938 C 235.226563 408.210938 234.089844 408.1875 232.953125 408.164063 L 233.039063 405.117188 L 229.980469 405.023438 L 229.976563 405.023438 L 229.894531 408.074219 C 214.0625 407.488281 198.785156 404.761719 184.335938 400.167969 L 185.59375 396.445313 L 182.6875 395.460938 L 181.417969 399.222656 C 180.203125 398.8125 178.996094 398.382813 177.792969 397.945313 L 179.09375 394.519531 L 176.234375 393.441406 L 176.230469 393.441406 L 174.925781 396.867188 C 159.980469 391.132813 146.039063 383.371094 133.441406 373.910156 L 135.714844 370.980469 L 133.292969 369.105469 L 131.007813 372.042969 C 130.121094 371.351563 129.238281 370.644531 128.363281 369.9375 L 130.480469 367.367188 L 128.109375 365.417969 L 126 367.980469 C 122.199219 364.785156 118.53125 361.4375 115.023438 357.929688 C 107.617188 350.515625 100.894531 342.421875 94.9375 333.765625 L 98.167969 331.644531 L 96.484375 329.085938 L 93.222656 331.222656 C 92.53125 330.183594 91.851563 329.132813 91.183594 328.078125 L 94.472656 326.039063 L 92.855469 323.433594 L 89.5625 325.472656 C 81.484375 312.160156 75.179688 297.660156 70.941406 282.296875 L 109.601563 272.179688 C 111.167969 277.707031 113.125 283.1875 115.46875 288.59375 C 117.984375 294.402344 120.328125 299.265625 123.492188 304.445313 L 120 306.601563 L 121.613281 309.214844 L 127.71875 305.425781 L 126.894531 304.117188 C 123.421875 298.597656 120.988281 293.609375 118.277344 287.375 C 115.785156 281.625 113.746094 275.796875 112.15625 269.917969 L 111.757813 268.453125 L 70.144531 279.335938 C 69.867188 278.253906 69.605469 277.167969 69.347656 276.078125 L 110.933594 266.566406 L 110.570313 265.0625 C 109.078125 258.71875 108.648438 253.992188 108.113281 247.1875 C 107.832031 243.71875 107.6875 240.277344 107.6875 236.875 C 107.6875 234.117188 107.78125 231.386719 107.953125 228.671875 L 108.054688 227.148438 L 65.222656 223.972656 C 65.285156 223.113281 65.363281 222.257813 65.4375 221.398438 L 107.953125 225.425781 L 108.089844 223.882813 C 108.644531 217.410156 109.953125 211.679688 111.566406 205.054688 C 113.070313 198.910156 114.449219 193.550781 116.699219 187.957031 L 117.269531 186.542969 L 113.882813 185.144531 L 112.710938 187.980469 L 113.304688 188.222656 C 111.289063 193.539063 109.972656 198.660156 108.585938 204.324219 C 107.09375 210.464844 105.824219 215.976563 105.179688 222.085938 L 65.722656 218.34375 C 67.390625 202.519531 71.199219 187.34375 76.859375 173.101563 L 82.277344 175.351563 L 83.460938 172.519531 L 78.019531 170.261719 C 78.460938 169.210938 78.914063 168.164063 79.375 167.125 L 84.53125 169.472656 L 85.804688 166.679688 L 80.644531 164.332031 C 87.304688 149.972656 95.886719 136.691406 106.070313 124.8125 L 110.742188 128.964844 L 112.769531 126.660156 L 108.089844 122.503906 C 108.917969 121.570313 109.753906 120.648438 110.601563 119.734375 L 115.148438 124.035156 L 117.257813 121.808594 L 117.257813 121.800781 L 112.707031 117.496094 C 113.476563 116.699219 114.242188 115.90625 115.023438 115.125 C 125.222656 104.921875 136.699219 96.011719 149.183594 88.628906 L 152.304688 94.15625 L 154.984375 92.652344 L 151.839844 87.085938 C 152.949219 86.453125 154.066406 85.835938 155.195313 85.226563 L 158.222656 91.074219 L 160.941406 89.667969 L 160.941406 89.664063 L 157.902344 83.796875 C 171.789063 76.640625 186.78125 71.328125 202.554688 68.179688 L 204.339844 78.117188 L 207.363281 77.578125 L 205.566406 67.601563 C 206.628906 67.410156 207.699219 67.234375 208.765625 67.0625 L 209.785156 74 L 212.824219 73.5625 L 211.800781 66.597656 C 219.820313 65.449219 228.019531 64.84375 236.363281 64.84375 C 244.347656 64.84375 252.195313 65.398438 259.886719 66.453125 L 253.773438 105.9375 C 248.070313 105.183594 242.265625 104.789063 236.367188 104.789063 C 229.976563 104.789063 223.6875 105.246094 217.546875 106.125 L 217.265625 104.1875 L 214.234375 104.636719 L 214.730469 108.089844 L 214.953125 109.621094 L 216.480469 109.390625 C 222.949219 108.378906 229.597656 107.859375 236.367188 107.859375 C 242.628906 107.859375 248.804688 108.3125 254.84375 109.175781 L 256.351563 109.390625 L 262.925781 66.890625 C 264.386719 67.117188 265.839844 67.363281 267.285156 67.625 L 266.058594 74.453125 L 269.078125 74.992188 L 270.300781 68.203125 C 285.578125 71.269531 300.117188 76.363281 313.632813 83.195313 L 310.601563 89.085938 L 313.328125 90.492188 L 316.355469 84.609375 C 317.796875 85.367188 319.222656 86.148438 320.636719 86.945313 L 317.199219 92.96875 L 319.871094 94.496094 L 323.296875 88.484375 C 335.871094 95.894531 347.429688 104.855469 357.691406 115.125 C 358.363281 115.796875 359.023438 116.480469 359.683594 117.164063 L 355.199219 121.417969 L 357.316406 123.648438 L 361.800781 119.394531 C 362.765625 120.429688 363.714844 121.476563 364.652344 122.53125 L 359.765625 126.902344 L 361.816406 129.195313 L 366.679688 124.847656 C 376.640625 136.480469 385.070313 149.457031 391.667969 163.472656 L 385.878906 166.136719 L 387.160156 168.925781 L 392.957031 166.257813 C 393.566406 167.613281 394.152344 168.976563 394.726563 170.351563 L 388.851563 172.835938 L 390.046875 175.65625 L 395.886719 173.1875 C 401.390625 187.054688 405.132813 201.8125 406.855469 217.183594 L 366.882813 221.246094 C 366.3125 215.425781 365.640625 211.054688 364.09375 204.90625 C 362.664063 199.230469 361.242188 194.03125 359.175781 188.726563 L 360.425781 188.207031 L 359.246094 185.378906 L 356.597656 186.480469 L 355.199219 187.070313 L 355.773438 188.484375 C 358.058594 194.070313 359.578125 199.519531 361.121094 205.652344 C 362.757813 212.199219 363.367188 216.511719 363.964844 223.078125 L 364.113281 224.617188 L 407.175781 220.238281 C 407.289063 221.484375 407.398438 222.730469 407.488281 223.984375 L 364.796875 227.15625 L 364.894531 228.671875 C 365.0625 231.359375 365.144531 234.066406 365.144531 236.800781 C 365.144531 240.234375 365.007813 243.699219 364.738281 247.1875 C 364.191406 253.992188 363.777344 258.039063 362.269531 264.398438 L 361.90625 265.90625 L 403.519531 275.425781 C 403.167969 276.960938 402.785156 278.480469 402.390625 280 L 360.859375 268.714844 L 360.453125 270.171875 C 358.800781 276.03125 356.691406 281.851563 354.148438 287.582031 C 351.390625 293.792969 349.542969 297.308594 345.984375 302.832031 L 345.144531 304.132813 L 351.210938 307.960938 L 352.851563 305.367188 L 349.394531 303.1875 C 352.503906 298.257813 354.386719 294.609375 356.953125 288.828125 C 359.347656 283.4375 361.351563 277.972656 362.984375 272.464844 L 401.59375 282.957031 C 397.429688 297.816406 391.316406 311.855469 383.554688 324.792969 Z M 412.4375 356.382813 C 406.875 364.554688 400.695313 372.421875 393.859375 379.949219 C 386.839844 387.683594 381.28125 393.292969 373.683594 399.59375 L 353.542969 375.058594 C 365.933594 364.550781 376.898438 352.417969 386.101563 338.976563 Z M 364.960938 406.097656 C 357.152344 412.132813 348.824219 417.726563 340.015625 422.769531 C 330.964844 427.945313 322.789063 431.972656 313.515625 435.644531 L 301.828125 405.832031 C 317.535156 399.746094 332.179688 391.542969 345.414063 381.5625 Z M 301.714844 439.757813 C 292.382813 442.734375 282.785156 444.796875 272.761719 446.546875 C 262.515625 448.332031 253.585938 449.414063 243.636719 449.710938 L 242.808594 417.894531 C 259.730469 417.304688 276.0625 414.394531 291.496094 409.476563 Z M 228.734375 449.824219 C 218.761719 449.535156 209.695313 448.628906 199.46875 446.855469 C 189.472656 445.105469 180.195313 443.019531 170.878906 440.039063 L 181.199219 409.464844 C 196.550781 414.363281 212.792969 417.269531 229.621094 417.882813 Z M 160.082031 435.941406 C 150.710938 432.363281 142.046875 428.300781 132.953125 423.246094 C 124.082031 418.308594 115.699219 412.835938 107.828125 406.894531 L 127.421875 381.65625 C 140.78125 391.710938 155.578125 399.957031 171.441406 406.039063 Z M 99.195313 400.515625 C 91.535156 394.140625 85.097656 387.375 78.0625 379.636719 C 71.226563 372.113281 65.441406 364.824219 59.925781 356.730469 L 86.730469 339.148438 C 96.054688 352.730469 107.179688 364.980469 119.761719 375.554688 Z M 54.09375 347.4375 C 48.855469 338.9375 44.742188 330.644531 40.589844 321.089844 C 36.558594 311.785156 33.246094 302.347656 30.617188 292.847656 L 61.453125 284.777344 C 65.9375 301.101563 72.636719 316.503906 81.21875 330.640625 Z M 105.050781 247.433594 C 105.554688 253.707031 105.972656 258.421875 107.246094 264.261719 L 68.679688 273.089844 C 66.125 261.308594 64.765625 249.078125 64.765625 236.527344 C 64.765625 233.34375 64.859375 230.175781 65.03125 227.03125 L 104.804688 229.984375 C 104.6875 232.265625 104.621094 234.5625 104.621094 236.875 C 104.621094 240.359375 104.761719 243.882813 105.050781 247.433594 Z M 55.957031 217.417969 L 23.867188 214.378906 C 24.863281 204.4375 26.789063 195.082031 29.253906 184.9375 C 31.671875 175.058594 34.257813 166.007813 37.847656 156.914063 L 67.796875 169.34375 C 61.769531 184.472656 57.714844 200.601563 55.957031 217.417969 Z M 27.617188 282.488281 C 25.453125 272.808594 24.472656 264.328125 23.644531 253.929688 C 23.179688 248.132813 22.953125 242.382813 22.953125 236.679688 C 22.953125 232.40625 23.082031 228.15625 23.335938 223.9375 L 55.25 226.308594 C 55.0625 229.691406 54.957031 233.097656 54.957031 236.527344 C 54.957031 249.828125 56.402344 262.789063 59.117188 275.277344 Z M 41.984375 146.726563 C 46.171875 137.679688 51.078125 129.765625 56.738281 120.96875 C 62.242188 112.433594 68.242188 104.414063 74.695313 96.9375 L 98.734375 118.292969 C 87.90625 130.898438 78.785156 145.007813 71.714844 160.265625 Z M 82.40625 88.84375 C 89.328125 81.5625 96.414063 75.121094 104.597656 68.667969 C 112.582031 62.375 120.238281 57.292969 128.722656 52.359375 L 144.363281 80.082031 C 130.0625 88.519531 117.015625 98.855469 105.582031 110.757813 Z M 138.726563 46.757813 C 147.671875 42.136719 156.34375 38.238281 166.171875 34.851563 C 175.785156 31.539063 185.464844 28.957031 195.160156 27.070313 L 200.816406 58.519531 C 184.0625 61.851563 168.140625 67.484375 153.394531 75.085938 Z M 205.707031 25.132813 C 215.71875 23.699219 225.945313 22.953125 236.367188 22.953125 C 246.519531 22.953125 256.515625 23.65625 266.300781 25.027344 L 261.386719 56.753906 C 253.207031 55.625 244.855469 55.027344 236.363281 55.023438 C 227.539063 55.027344 218.863281 55.671875 210.375 56.890625 Z M 277.6875 27.070313 C 287.386719 28.960938 297.0625 31.539063 306.675781 34.851563 C 316.5625 38.261719 324.195313 41.097656 333.003906 45.597656 L 318.125 74.480469 C 303.753906 67.203125 288.285156 61.789063 272.035156 58.546875 Z M 344.058594 52.070313 C 352.585938 57.042969 360.882813 62.683594 368.863281 68.972656 C 377.03125 75.425781 383.238281 81.128906 390.078125 88.347656 L 366.800781 110.417969 C 355.394531 98.605469 342.394531 88.34375 328.15625 79.964844 Z M 397.460938 97.300781 C 403.953125 104.734375 409.929688 112.328125 415.460938 120.835938 C 421.117188 129.574219 425.097656 137.105469 429.265625 146.175781 L 400.582031 159.371094 C 393.574219 144.460938 384.601563 130.660156 373.988281 118.304688 Z M 452.46875 222.195313 L 452.363281 220.652344 L 450.824219 220.761719 L 417.269531 223.257813 C 417.171875 221.914063 417.058594 220.582031 416.933594 219.246094 L 451.410156 215.742188 L 451.257813 214.21875 C 450.230469 203.558594 448.875 194.957031 446.183594 184.234375 C 443.554688 173.769531 440.613281 164.039063 436.585938 154.320313 L 435.992188 152.886719 L 403.765625 166.527344 C 403.152344 165.058594 402.519531 163.601563 401.871094 162.152344 L 433.316406 147.679688 L 432.683594 146.292969 C 428.25 136.515625 424.070313 128.476563 418.027344 119.164063 C 412.109375 110.0625 405.691406 101.992188 398.742188 94.117188 L 397.71875 92.960938 L 371.964844 115.992188 C 370.960938 114.863281 369.945313 113.75 368.917969 112.648438 L 394.414063 88.472656 L 393.375 87.367188 C 386.03125 79.519531 379.449219 73.425781 370.769531 66.5625 C 362.246094 59.847656 353.382813 53.871094 344.253906 48.636719 L 342.917969 47.871094 L 325.492188 78.429688 C 323.960938 77.558594 322.40625 76.714844 320.847656 75.890625 L 337.125 44.28125 L 335.773438 43.570313 C 326.214844 38.566406 318.097656 35.550781 307.679688 31.949219 C 297.421875 28.421875 287.089844 25.707031 276.730469 23.765625 L 275.214844 23.484375 L 269.019531 57.96875 C 267.496094 57.691406 265.964844 57.429688 264.425781 57.191406 L 269.800781 22.441406 L 268.277344 22.21875 C 257.859375 20.679688 247.195313 19.882813 236.367188 19.882813 C 225.269531 19.882813 214.386719 20.714844 203.746094 22.328125 L 202.230469 22.550781 L 207.339844 57.351563 C 206.167969 57.539063 204.996094 57.730469 203.828125 57.941406 L 197.628906 23.484375 L 196.117188 23.765625 C 185.761719 25.707031 175.425781 28.421875 165.171875 31.949219 C 154.683594 35.570313 145.46875 39.765625 135.953125 44.742188 L 134.597656 45.453125 L 150.683594 76.519531 C 149.453125 77.179688 148.234375 77.855469 147.019531 78.542969 L 129.871094 48.152344 L 128.535156 48.933594 C 119.417969 54.160156 111.226563 59.539063 102.695313 66.257813 C 93.996094 73.117188 86.46875 80.015625 79.121094 87.855469 L 78.078125 88.96875 L 103.476563 112.996094 C 102.558594 113.980469 101.652344 114.976563 100.757813 115.984375 L 74.414063 92.578125 L 73.398438 93.746094 C 66.460938 101.667969 60.03125 110.195313 54.164063 119.304688 C 48.195313 128.578125 42.980469 136.992188 38.550781 146.863281 L 37.925781 148.25 L 70.445313 163.058594 C 69.941406 164.199219 69.441406 165.347656 68.957031 166.503906 L 36.164063 152.894531 L 35.578125 154.328125 C 31.605469 164.097656 28.84375 173.734375 26.28125 184.21875 C 23.667969 194.9375 21.632813 204.890625 20.671875 215.621094 L 20.53125 217.148438 L 55.671875 220.476563 C 55.589844 221.398438 55.511719 222.320313 55.445313 223.246094 L 20.476563 220.652344 L 20.375 222.195313 C 20.050781 226.980469 19.886719 231.8125 19.886719 236.679688 C 19.886719 242.460938 20.113281 248.300781 20.578125 254.171875 C 21.457031 265.160156 22.523438 274.167969 24.96875 284.664063 L 25.316406 286.152344 L 59.785156 278.265625 C 60.066406 279.453125 60.347656 280.640625 60.652344 281.816406 L 26.847656 290.65625 L 27.246094 292.15625 C 29.976563 302.292969 33.472656 312.375 37.785156 322.304688 C 42.171875 332.429688 46.589844 341.25 52.300781 350.363281 L 53.109375 351.664063 L 82.84375 333.242188 C 83.554688 334.371094 84.28125 335.492188 85.015625 336.601563 L 55.644531 355.859375 L 56.507813 357.144531 C 62.371094 365.898438 68.511719 373.691406 75.792969 381.707031 C 83.21875 389.867188 90.066406 397.046875 98.433594 403.859375 L 99.617188 404.832031 L 122.125 377.507813 C 123.074219 378.277344 124.027344 379.039063 124.988281 379.792969 L 103.5 407.453125 L 104.734375 408.394531 C 113.070313 414.792969 121.996094 420.664063 131.464844 425.917969 C 141.140625 431.304688 150.363281 435.59375 160.433594 439.355469 L 161.863281 439.882813 L 174.308594 407.121094 C 175.625 407.601563 176.949219 408.066406 178.277344 408.519531 L 166.972656 441.996094 L 168.445313 442.480469 C 178.433594 445.777344 188.324219 448.023438 198.941406 449.875 C 209.816406 451.765625 219.476563 452.6875 230.1875 452.933594 L 231.714844 452.960938 L 232.683594 417.976563 C 233.90625 418 235.132813 418.019531 236.363281 418.019531 C 237.492188 418.019531 238.613281 418 239.738281 417.976563 L 240.652344 452.851563 L 242.179688 452.824219 C 252.921875 452.589844 262.429688 451.445313 273.285156 449.566406 C 283.902344 447.722656 294.144531 445.5 304.144531 442.203125 L 305.613281 441.714844 L 294.40625 408.527344 C 295.933594 408.015625 297.445313 407.476563 298.953125 406.925781 L 311.757813 439.621094 L 313.1875 439.058594 C 323.222656 435.179688 331.933594 430.929688 341.53125 425.433594 C 350.941406 420.042969 359.789063 414.054688 368.070313 407.558594 L 369.289063 406.605469 L 347.851563 379.691406 C 348.976563 378.816406 350.085938 377.929688 351.1875 377.027344 L 373.246094 403.910156 L 374.445313 402.945313 C 382.785156 396.140625 388.714844 390.1875 396.125 382.011719 C 403.417969 373.988281 409.988281 365.566406 415.851563 356.816406 L 416.707031 355.523438 L 387.8125 336.425781 C 388.636719 335.175781 389.445313 333.917969 390.238281 332.648438 L 419.367188 351.105469 L 420.191406 349.824219 C 425.976563 340.769531 429.867188 333.40625 434.363281 323.308594 C 438.773438 313.414063 442.367188 303.355469 445.191406 293.226563 L 445.605469 291.742188 L 411.859375 282.574219 C 412.289063 280.929688 412.699219 279.277344 413.085938 277.613281 L 447.519531 285.488281 L 447.859375 284.007813 C 450.320313 273.527344 451.382813 265.171875 452.261719 254.171875 C 452.726563 248.316406 452.964844 242.515625 452.964844 236.75 C 452.964844 231.859375 452.785156 227.007813 452.46875 222.195313 "/>
<path style=" stroke:none;fill-rule:nonzero;fill:rgb(0%,38.398743%,14.498901%);fill-opacity:1;" d="M 342.523438 308.316406 C 339.101563 313.371094 335.289063 318.238281 331.074219 322.882813 C 326.472656 327.945313 323.710938 330.878906 318.617188 334.996094 L 317.417969 335.972656 L 322.164063 341.75 L 324.539063 339.800781 L 321.742188 336.40625 C 326.253906 332.652344 329.113281 329.613281 333.339844 324.945313 C 337.3125 320.574219 340.929688 316.007813 344.203125 311.277344 L 347.953125 313.730469 L 349.636719 311.160156 L 343.363281 307.066406 L 342.523438 308.316406 "/>
<path style=" stroke:none;fill-rule:nonzero;fill:rgb(0%,38.398743%,14.498901%);fill-opacity:1;" d="M 319.417969 343.90625 L 314.488281 337.828125 L 313.3125 338.761719 C 308.503906 342.511719 303.367188 345.964844 297.925781 349.078125 C 292.019531 352.453125 287.199219 354.847656 281.09375 357.183594 L 279.640625 357.730469 L 282.289063 364.503906 L 285.160156 363.390625 L 283.625 359.484375 C 289.238281 357.261719 293.925781 354.894531 299.4375 351.742188 C 304.574219 348.808594 309.433594 345.585938 314.003906 342.097656 L 317.03125 345.835938 L 319.417969 343.90625 "/>
<path style=" stroke:none;fill-rule:nonzero;fill:rgb(0%,38.398743%,14.498901%);fill-opacity:1;" d="M 354.867188 179.902344 C 352.417969 174.5625 350.316406 170.742188 346.855469 165.421875 C 343.710938 160.574219 341.109375 155.902344 337.445313 151.453125 L 338.613281 150.429688 L 336.605469 148.121094 L 336.597656 148.121094 L 333.121094 151.132813 L 334.140625 152.296875 C 338.074219 156.78125 340.789063 161.6875 344.28125 167.089844 C 347.980469 172.789063 350.007813 176.550781 352.703125 182.570313 L 353.335938 183.980469 L 357.535156 182.054688 L 356.246094 179.269531 L 354.867188 179.902344 "/>
<path style=" stroke:none;fill-rule:nonzero;fill:rgb(0%,38.398743%,14.498901%);fill-opacity:1;" d="M 233.871094 372.371094 L 234.066406 365.246094 L 232.511719 365.226563 C 225.972656 365.101563 220.605469 364.597656 213.949219 363.4375 C 207.730469 362.359375 202.226563 361.214844 196.472656 359.339844 L 195.019531 358.859375 L 192.855469 365.390625 L 195.765625 366.359375 L 196.972656 362.707031 C 202.410156 364.390625 207.667969 365.457031 213.421875 366.46875 C 219.675781 367.558594 224.902344 368.089844 230.910156 368.257813 L 230.804688 372.28125 L 233.871094 372.371094 "/>
<path style=" stroke:none;fill-rule:nonzero;fill:rgb(0%,38.398743%,14.498901%);fill-opacity:1;" d="M 103.515625 175.160156 L 100.546875 182.902344 C 101.429688 183.3125 102.027344 183.753906 102.34375 184.242188 C 102.652344 184.734375 102.667969 185.316406 102.414063 185.996094 C 102.054688 186.929688 101.351563 187.375 100.316406 187.335938 C 99.261719 187.292969 97.816406 186.90625 95.953125 186.160156 C 94.085938 185.472656 92.753906 184.785156 91.976563 184.125 C 91.191406 183.449219 90.980469 182.65625 91.34375 181.710938 C 91.617188 180.980469 92.027344 180.546875 92.574219 180.382813 C 93.113281 180.226563 93.847656 180.328125 94.761719 180.6875 L 95.027344 180.792969 L 97.917969 173.246094 C 95.078125 172.175781 92.640625 172.164063 90.621094 173.214844 C 88.597656 174.261719 86.984375 176.382813 85.757813 179.570313 C 84.421875 183.09375 84.359375 186.160156 85.558594 188.765625 C 86.765625 191.378906 89.152344 193.382813 92.71875 194.78125 C 96.28125 196.117188 99.371094 196.230469 101.984375 195.109375 C 104.59375 193.988281 106.566406 191.726563 107.90625 188.308594 C 109.191406 184.96875 109.476563 182.203125 108.757813 180.03125 C 108.035156 177.859375 106.285156 176.238281 103.515625 175.160156 "/>
<path style=" stroke:none;fill-rule:nonzero;fill:rgb(0%,38.398743%,14.498901%);fill-opacity:1;" d="M 112.972656 164.085938 C 112.46875 164.921875 111.71875 165.242188 110.703125 165.050781 C 109.691406 164.863281 108.347656 164.253906 106.683594 163.226563 C 104.917969 162.195313 103.703125 161.277344 103.035156 160.460938 C 102.359375 159.65625 102.289063 158.816406 102.820313 157.949219 C 103.328125 157.101563 104.0625 156.753906 105.027344 156.925781 C 105.992188 157.101563 107.289063 157.6875 108.917969 158.695313 C 110.769531 159.777344 112.03125 160.734375 112.71875 161.574219 C 113.402344 162.398438 113.488281 163.246094 112.972656 164.085938 Z M 117.964844 167.347656 C 119.96875 163.996094 120.621094 160.929688 119.933594 158.152344 C 119.25 155.371094 117.246094 152.984375 113.925781 150.972656 C 110.648438 149.019531 107.613281 148.378906 104.820313 149.03125 C 102.027344 149.699219 99.660156 151.628906 97.714844 154.835938 C 95.777344 158.09375 95.167969 161.117188 95.898438 163.898438 C 96.621094 166.691406 98.617188 169.089844 101.894531 171.082031 C 105.167969 173.019531 108.183594 173.664063 110.953125 173.019531 C 113.730469 172.363281 116.0625 170.476563 117.964844 167.347656 "/>
<path style=" stroke:none;fill-rule:nonzero;fill:rgb(0%,38.398743%,14.498901%);fill-opacity:1;" d="M 121.042969 151.332031 C 122.035156 151.847656 123.195313 152.082031 124.523438 152.027344 C 125.910156 151.945313 127.238281 151.5 128.484375 150.691406 C 129.738281 149.875 130.996094 148.714844 132.265625 147.183594 C 134.617188 144.398438 135.753906 141.828125 135.703125 139.480469 C 135.636719 137.125 134.351563 134.910156 131.855469 132.824219 L 121.21875 123.890625 L 115.648438 130.550781 L 126.546875 139.699219 C 127.265625 140.316406 127.703125 140.917969 127.851563 141.511719 C 128.003906 142.101563 127.867188 142.648438 127.457031 143.144531 C 127.023438 143.667969 126.503906 143.898438 125.910156 143.859375 C 125.320313 143.816406 124.652344 143.480469 123.902344 142.84375 L 113 133.695313 L 107.433594 140.320313 L 118.078125 149.253906 C 119.070313 150.121094 120.054688 150.8125 121.042969 151.332031 "/>
<path style=" stroke:none;fill-rule:nonzero;fill:rgb(0%,38.398743%,14.498901%);fill-opacity:1;" d="M 147.046875 131.855469 L 138.125 120.835938 L 150.914063 128.722656 L 159.277344 121.945313 L 144.777344 104.035156 L 139.128906 108.613281 L 147.804688 119.339844 L 135.261719 111.738281 L 126.894531 118.519531 L 141.394531 136.433594 L 147.046875 131.855469 "/>
<path style=" stroke:none;fill-rule:nonzero;fill:rgb(0%,38.398743%,14.498901%);fill-opacity:1;" d="M 157.355469 103.824219 L 165.53125 118.605469 L 173.328125 114.28125 L 165.144531 99.503906 L 169.988281 96.816406 L 167.011719 91.433594 L 149.492188 101.144531 L 152.476563 106.527344 L 157.355469 103.824219 "/>
<path style=" stroke:none;fill-rule:nonzero;fill:rgb(0%,38.398743%,14.498901%);fill-opacity:1;" d="M 183.839844 109.371094 L 192.125 106.1875 L 189.269531 98.746094 L 190.863281 81.980469 L 182.941406 85.023438 L 183.417969 94.855469 L 176.867188 87.359375 L 168.363281 90.617188 L 180.980469 101.929688 L 183.839844 109.371094 "/>
<path style=" stroke:none;fill-rule:nonzero;fill:rgb(0%,38.398743%,14.498901%);fill-opacity:1;" d="M 216.1875 84.300781 C 216.414063 83.277344 217.03125 82.703125 218.039063 82.589844 C 219.023438 82.464844 219.738281 82.832031 220.199219 83.695313 C 220.660156 84.5625 221.003906 85.949219 221.199219 87.855469 C 221.496094 89.980469 221.515625 91.5625 221.277344 92.621094 C 221.042969 93.675781 220.433594 94.261719 219.457031 94.375 C 218.484375 94.492188 217.769531 94.09375 217.300781 93.175781 C 216.824219 92.253906 216.476563 90.820313 216.265625 88.882813 C 215.984375 86.851563 215.964844 85.328125 216.1875 84.300781 Z M 211.175781 98.28125 C 213.398438 100.0625 216.328125 100.738281 219.957031 100.316406 C 223.832031 99.828125 226.652344 98.457031 228.421875 96.207031 C 230.183594 93.949219 230.828125 90.898438 230.371094 87.054688 C 229.886719 83.261719 228.53125 80.472656 226.285156 78.675781 C 224.054688 76.882813 221.074219 76.199219 217.339844 76.640625 C 213.589844 77.121094 210.84375 78.503906 209.078125 80.792969 C 207.335938 83.082031 206.679688 86.132813 207.128906 89.941406 C 207.617188 93.714844 208.96875 96.492188 211.175781 98.28125 "/>
<path style=" stroke:none;fill-rule:nonzero;fill:rgb(0%,38.398743%,14.498901%);fill-opacity:1;" d="M 243.144531 90.867188 L 251.089844 91.144531 L 251.300781 85.222656 L 243.347656 84.945313 L 243.453125 82.25 L 252.257813 82.550781 L 252.46875 76.535156 L 234.949219 75.921875 L 234.144531 98.953125 L 242.855469 99.269531 L 243.144531 90.867188 "/>
<path style=" stroke:none;fill-rule:nonzero;fill:rgb(0%,38.398743%,14.498901%);fill-opacity:1;" d="M 276.382813 87.726563 L 274.648438 104.5 L 282.261719 106.976563 L 290.769531 92.410156 L 285.585938 108.058594 L 292.6875 110.371094 L 299.8125 88.445313 L 288.316406 84.710938 L 281.609375 96.871094 L 283.410156 83.109375 L 271.375 79.199219 L 264.253906 101.125 L 271.320313 103.417969 L 276.382813 87.726563 "/>
<path style=" stroke:none;fill-rule:nonzero;fill:rgb(0%,38.398743%,14.498901%);fill-opacity:1;" d="M 306.632813 110.394531 C 306.820313 109.378906 307.433594 108.035156 308.464844 106.371094 C 309.492188 104.609375 310.410156 103.390625 311.214844 102.722656 C 312.023438 102.054688 312.859375 101.980469 313.730469 102.511719 C 314.589844 103.011719 314.925781 103.746094 314.757813 104.714844 C 314.589844 105.683594 314 106.980469 312.984375 108.613281 C 311.90625 110.453125 310.945313 111.726563 310.117188 112.410156 C 309.285156 113.101563 308.441406 113.183594 307.601563 112.671875 C 306.761719 112.164063 306.4375 111.410156 306.632813 110.394531 Z M 298.667969 110.648438 C 299.324219 113.417969 301.210938 115.753906 304.335938 117.65625 C 307.691406 119.664063 310.761719 120.316406 313.535156 119.632813 C 316.308594 118.949219 318.695313 116.945313 320.699219 113.621094 C 322.652344 110.335938 323.308594 107.296875 322.644531 104.507813 C 321.980469 101.71875 320.050781 99.34375 316.84375 97.386719 C 313.589844 95.453125 310.570313 94.855469 307.789063 95.582031 C 304.988281 96.296875 302.605469 98.296875 300.605469 101.582031 C 298.667969 104.855469 298.03125 107.878906 298.667969 110.648438 "/>
<path style=" stroke:none;fill-rule:nonzero;fill:rgb(0%,38.398743%,14.498901%);fill-opacity:1;" d="M 322.324219 129.402344 L 331.429688 118.539063 L 326.136719 132.597656 L 334.371094 139.515625 L 349.183594 121.863281 L 343.617188 117.1875 L 334.742188 127.761719 L 339.8125 113.992188 L 331.558594 107.070313 L 316.75 124.722656 L 322.324219 129.402344 "/>
<path style=" stroke:none;fill-rule:nonzero;fill:rgb(0%,38.398743%,14.498901%);fill-opacity:1;" d="M 356.0625 137.785156 C 356.191406 137.921875 356.316406 138.054688 356.425781 138.179688 C 356.523438 138.300781 356.621094 138.429688 356.707031 138.53125 C 357.324219 139.289063 357.652344 139.941406 357.691406 140.507813 C 357.722656 141.0625 357.464844 141.570313 356.902344 142.007813 C 356.324219 142.480469 355.707031 142.628906 355.046875 142.480469 C 354.402344 142.316406 353.734375 141.832031 353.070313 141.023438 C 353.011719 140.957031 352.945313 140.871094 352.882813 140.78125 C 352.8125 140.699219 352.75 140.601563 352.695313 140.511719 Z M 342.15625 149.039063 L 348.660156 143.773438 C 348.765625 143.886719 348.859375 143.984375 348.953125 144.089844 C 349.042969 144.191406 349.117188 144.296875 349.191406 144.378906 C 349.835938 145.152344 350.042969 145.839844 349.824219 146.453125 C 349.617188 147.0625 349.078125 147.8125 348.1875 148.699219 L 347.015625 149.941406 C 346.648438 150.316406 346.304688 150.714844 345.964844 151.144531 C 345.628906 151.566406 345.292969 152.015625 344.945313 152.484375 L 350.496094 159.335938 C 351.027344 158.644531 351.519531 158.039063 351.972656 157.496094 C 352.410156 156.960938 352.8125 156.5 353.179688 156.128906 L 354.910156 154.347656 C 356.085938 153.183594 356.800781 152.121094 357.074219 151.15625 C 357.335938 150.195313 357.078125 149.050781 356.316406 147.730469 C 357.574219 148.644531 358.789063 149.121094 359.964844 149.15625 C 361.136719 149.179688 362.265625 148.765625 363.34375 147.890625 C 365.109375 146.476563 365.824219 144.910156 365.523438 143.183594 C 365.210938 141.460938 364.042969 139.378906 362.019531 136.953125 L 354.605469 127.789063 L 336.695313 142.289063 L 342.15625 149.039063 "/>
<path style=" stroke:none;fill-rule:nonzero;fill:rgb(0%,38.398743%,14.498901%);fill-opacity:1;" d="M 361.675781 164.972656 C 362.34375 164.1875 363.539063 163.335938 365.261719 162.398438 C 367.042969 161.382813 368.445313 160.789063 369.476563 160.613281 C 370.507813 160.445313 371.273438 160.800781 371.769531 161.695313 C 372.253906 162.558594 372.179688 163.359375 371.550781 164.113281 C 370.910156 164.867188 369.753906 165.695313 368.070313 166.605469 C 366.207031 167.664063 364.746094 168.28125 363.679688 168.464844 C 362.613281 168.644531 361.84375 168.289063 361.371094 167.421875 C 360.898438 166.566406 360.996094 165.753906 361.675781 164.972656 Z M 354.65625 161.210938 C 353.832031 163.925781 354.296875 166.898438 356.058594 170.113281 C 357.960938 173.523438 360.285156 175.628906 363.035156 176.421875 C 365.777344 177.21875 368.84375 176.679688 372.242188 174.8125 C 375.574219 172.9375 377.660156 170.632813 378.480469 167.886719 C 379.304688 165.136719 378.816406 162.113281 377.019531 158.816406 C 375.167969 155.515625 372.851563 153.476563 370.070313 152.714844 C 367.300781 151.945313 364.222656 152.476563 360.859375 154.324219 C 357.554688 156.191406 355.476563 158.480469 354.65625 161.210938 "/>
<path style=" stroke:none;fill-rule:nonzero;fill:rgb(0%,38.398743%,14.498901%);fill-opacity:1;" d="M 368.609375 199.277344 L 374.277344 197.328125 L 371.394531 188.960938 L 373.976563 188.070313 L 376.5625 195.59375 L 382.160156 193.664063 L 379.574219 186.140625 L 381.914063 185.339844 L 384.707031 193.433594 L 390.308594 191.503906 L 384.6875 175.164063 L 362.894531 182.671875 L 368.609375 199.277344 "/>
<path style=" stroke:none;fill-rule:nonzero;fill:rgb(0%,38.398743%,14.498901%);fill-opacity:1;" d="M 98.609375 302.125 C 99.203125 301.257813 99.542969 300.179688 99.644531 298.882813 C 99.730469 297.574219 99.65625 296.019531 99.417969 294.191406 C 99.191406 292.699219 99.039063 291.5625 98.964844 290.75 C 98.894531 289.949219 99.203125 289.402344 99.894531 289.121094 C 100.308594 288.957031 100.710938 288.976563 101.101563 289.1875 C 101.492188 289.394531 101.804688 289.773438 102.035156 290.324219 C 102.28125 290.917969 102.308594 291.433594 102.117188 291.867188 C 101.929688 292.304688 101.519531 292.675781 100.894531 292.96875 L 103.765625 300.074219 L 104.214844 299.894531 C 106.105469 299.121094 107.253906 297.796875 107.679688 295.914063 C 108.089844 294.046875 107.722656 291.679688 106.582031 288.839844 C 105.304688 285.710938 103.746094 283.566406 101.90625 282.402344 C 100.078125 281.238281 98.101563 281.082031 95.988281 281.921875 C 94.5 282.515625 93.457031 283.410156 92.871094 284.613281 C 92.292969 285.8125 92.066406 287.375 92.230469 289.316406 C 92.359375 290.738281 92.5 291.964844 92.652344 293 C 92.808594 294.023438 92.867188 294.886719 92.832031 295.539063 C 92.8125 295.859375 92.703125 296.140625 92.503906 296.390625 C 92.304688 296.636719 92.035156 296.824219 91.6875 296.972656 C 91.222656 297.152344 90.773438 297.132813 90.359375 296.894531 C 89.945313 296.660156 89.597656 296.222656 89.335938 295.597656 C 89.054688 294.90625 89.023438 294.320313 89.238281 293.835938 C 89.457031 293.355469 89.921875 292.976563 90.65625 292.679688 L 90.828125 292.609375 L 87.71875 284.921875 C 87.574219 284.949219 87.449219 285 87.320313 285.046875 C 87.183594 285.09375 87.058594 285.148438 86.9375 285.195313 C 84.890625 286.03125 83.636719 287.484375 83.175781 289.5625 C 82.714844 291.640625 83.109375 294.25 84.371094 297.410156 C 85.652344 300.503906 87.300781 302.632813 89.320313 303.800781 C 91.335938 304.96875 93.488281 305.101563 95.78125 304.195313 C 97.058594 303.683594 98.003906 302.988281 98.609375 302.125 "/>
<path style=" stroke:none;fill-rule:nonzero;fill:rgb(0%,38.398743%,14.498901%);fill-opacity:1;" d="M 115.613281 319.699219 L 120.878906 316.527344 L 110.570313 299.351563 L 105.300781 302.523438 L 108.164063 307.304688 L 93.691406 316.003906 L 98.277344 323.640625 L 112.75 314.941406 L 115.613281 319.699219 "/>
<path style=" stroke:none;fill-rule:nonzero;fill:rgb(0%,38.398743%,14.498901%);fill-opacity:1;" d="M 118.078125 335.109375 L 115.503906 331.933594 L 123.882813 327.851563 Z M 124.082031 320.671875 L 101.390625 329.261719 L 106.882813 336.054688 L 110.265625 334.425781 L 114.484375 339.640625 L 112.148438 342.554688 L 118.140625 349.964844 L 131.46875 329.796875 L 124.082031 320.671875 "/>
<path style=" stroke:none;fill-rule:nonzero;fill:rgb(0%,38.398743%,14.498901%);fill-opacity:1;" d="M 145.316406 351.636719 L 149.433594 347.066406 L 134.546875 333.652344 L 130.429688 338.234375 L 134.566406 341.96875 L 123.273438 354.527344 L 129.890625 360.484375 L 141.195313 347.917969 L 145.316406 351.636719 "/>
<path style=" stroke:none;fill-rule:nonzero;fill:rgb(0%,38.398743%,14.498901%);fill-opacity:1;" d="M 138.425781 367.515625 L 153.144531 377.085938 L 156.417969 372.058594 L 148.996094 367.238281 L 150.480469 364.953125 L 157.148438 369.28125 L 160.375 364.3125 L 153.710938 359.976563 L 155.054688 357.90625 L 162.230469 362.574219 L 165.457031 357.601563 L 150.972656 348.1875 L 138.425781 367.515625 "/>
<path style=" stroke:none;fill-rule:nonzero;fill:rgb(0%,38.398743%,14.498901%);fill-opacity:1;" d="M 186.085938 379.492188 C 185.335938 381.496094 184.617188 382.910156 183.910156 383.734375 C 183.210938 384.558594 182.402344 384.789063 181.484375 384.433594 C 180.578125 384.082031 180.121094 383.378906 180.136719 382.355469 C 180.144531 381.324219 180.515625 379.894531 181.234375 378.074219 C 181.945313 376.152344 182.636719 374.796875 183.316406 374.003906 C 184.003906 373.195313 184.816406 372.988281 185.757813 373.355469 C 186.6875 373.699219 187.148438 374.363281 187.148438 375.347656 C 187.148438 376.332031 186.792969 377.707031 186.085938 379.492188 Z M 187.9375 367.769531 C 184.390625 366.433594 181.308594 366.367188 178.691406 367.5625 C 176.070313 368.757813 174.070313 371.144531 172.679688 374.71875 C 171.335938 378.28125 171.230469 381.367188 172.339844 383.980469 C 173.460938 386.601563 175.730469 388.570313 179.136719 389.910156 C 182.785156 391.296875 185.917969 391.410156 188.535156 390.25 C 191.148438 389.09375 193.152344 386.703125 194.558594 383.089844 C 195.910156 379.519531 196.015625 376.410156 194.878906 373.773438 C 193.75 371.144531 191.429688 369.140625 187.9375 367.769531 "/>
<path style=" stroke:none;fill-rule:nonzero;fill:rgb(0%,38.398743%,14.498901%);fill-opacity:1;" d="M 197.152344 395.242188 L 205.703125 396.910156 L 207.3125 388.671875 L 215.109375 390.1875 L 216.238281 384.363281 L 208.4375 382.84375 L 208.953125 380.191406 L 217.609375 381.882813 L 218.753906 375.972656 L 201.546875 372.621094 L 197.152344 395.242188 "/>
<path style=" stroke:none;fill-rule:nonzero;fill:rgb(0%,38.398743%,14.498901%);fill-opacity:1;" d="M 247.664063 376.125 L 248.632813 389.898438 L 242.71875 376.472656 L 231.980469 377.230469 L 233.578125 400.21875 L 240.839844 399.710938 L 239.851563 385.5625 L 245.789063 399.363281 L 256.53125 398.617188 L 254.921875 375.617188 L 247.664063 376.125 "/>
<path style=" stroke:none;fill-rule:nonzero;fill:rgb(0%,38.398743%,14.498901%);fill-opacity:1;" d="M 270.792969 390.019531 L 270.226563 387.347656 L 278.007813 385.6875 L 276.773438 379.894531 L 269 381.546875 L 268.484375 379.132813 L 276.867188 377.347656 L 275.621094 371.546875 L 258.730469 375.136719 L 263.523438 397.6875 L 280.699219 394.035156 L 279.449219 388.175781 L 270.792969 390.019531 "/>
<path style=" stroke:none;fill-rule:nonzero;fill:rgb(0%,38.398743%,14.498901%);fill-opacity:1;" d="M 300.914063 361.046875 L 304.929688 375.207031 L 297.109375 362.738281 L 288.644531 366.507813 L 292.511719 380.320313 L 284.867188 368.195313 L 277.628906 371.414063 L 291.375 390.519531 L 300.390625 386.503906 L 296.125 372.058594 L 304.039063 384.871094 L 312.914063 380.921875 L 307.851563 357.945313 L 300.914063 361.046875 "/>
<path style=" stroke:none;fill-rule:nonzero;fill:rgb(0%,38.398743%,14.498901%);fill-opacity:1;" d="M 334.308594 337.34375 L 327.710938 342.6875 L 331.191406 351.890625 L 322.652344 346.78125 L 315.578125 352.511719 L 331.074219 359.371094 L 336.082031 365.566406 L 342.976563 359.976563 L 337.972656 353.785156 L 334.308594 337.34375 "/>
<path style=" stroke:none;fill-rule:nonzero;fill:rgb(0%,38.398743%,14.498901%);fill-opacity:1;" d="M 353.734375 341.550781 C 353.09375 342.273438 352.277344 342.445313 351.328125 342.066406 C 350.359375 341.671875 349.164063 340.832031 347.726563 339.503906 C 346.195313 338.144531 345.167969 337.019531 344.671875 336.097656 C 344.164063 335.167969 344.265625 334.335938 344.9375 333.578125 C 345.605469 332.847656 346.382813 332.65625 347.300781 332.996094 C 348.210938 333.347656 349.367188 334.179688 350.789063 335.484375 C 352.386719 336.894531 353.445313 338.078125 353.96875 339.035156 C 354.480469 339.976563 354.40625 340.820313 353.734375 341.550781 Z M 357.179688 328.855469 C 354.324219 326.3125 351.46875 325.101563 348.601563 325.214844 C 345.75 325.332031 343.046875 326.777344 340.515625 329.550781 C 338 332.371094 336.820313 335.238281 337 338.105469 C 337.183594 340.984375 338.6875 343.71875 341.523438 346.296875 C 344.371094 348.824219 347.203125 350.03125 350.058594 349.925781 C 352.894531 349.824219 355.554688 348.40625 358.015625 345.695313 C 360.621094 342.796875 361.847656 339.914063 361.699219 337.050781 C 361.550781 334.1875 360.046875 331.457031 357.179688 328.855469 "/>
<path style=" stroke:none;fill-rule:nonzero;fill:rgb(0%,38.398743%,14.498901%);fill-opacity:1;" d="M 363.066406 315.828125 C 363.019531 315.914063 362.964844 316.003906 362.90625 316.09375 C 362.847656 316.179688 362.773438 316.273438 362.703125 316.359375 L 359.027344 314.0625 C 359.117188 313.894531 359.207031 313.734375 359.289063 313.59375 C 359.378906 313.457031 359.464844 313.320313 359.53125 313.203125 C 360.046875 312.375 360.5625 311.855469 361.074219 311.640625 C 361.601563 311.421875 362.152344 311.503906 362.753906 311.886719 C 363.386719 312.269531 363.726563 312.808594 363.796875 313.488281 C 363.859375 314.160156 363.609375 314.941406 363.066406 315.828125 Z M 377.308594 310.828125 L 375.058594 309.757813 C 373.582031 309.027344 372.335938 308.6875 371.34375 308.757813 C 370.347656 308.816406 369.347656 309.433594 368.351563 310.585938 C 368.808594 309.09375 368.863281 307.789063 368.507813 306.664063 C 368.152344 305.550781 367.390625 304.621094 366.210938 303.878906 C 364.300781 302.679688 362.578125 302.5 361.058594 303.347656 C 359.53125 304.195313 357.941406 305.976563 356.3125 308.6875 L 350.058594 318.695313 L 369.597656 330.902344 L 374.195313 323.535156 L 367.101563 319.109375 C 367.160156 318.972656 367.230469 318.851563 367.300781 318.726563 C 367.378906 318.613281 367.4375 318.503906 367.496094 318.410156 C 368.023438 317.550781 368.609375 317.125 369.257813 317.132813 C 369.902344 317.140625 370.792969 317.40625 371.90625 317.949219 L 373.476563 318.664063 C 373.9375 318.875 374.425781 319.066406 374.941406 319.265625 C 375.453125 319.441406 375.980469 319.621094 376.542969 319.785156 L 381.214844 312.3125 C 380.390625 312.027344 379.648438 311.761719 378.996094 311.519531 C 378.34375 311.273438 377.773438 311.035156 377.308594 310.828125 "/>
<path style=" stroke:none;fill-rule:nonzero;fill:rgb(0%,38.398743%,14.498901%);fill-opacity:1;" d="M 392.621094 284.652344 L 378.527344 286.492188 L 370.929688 276.855469 L 367.488281 285.355469 L 374.710938 293.527344 L 365.667969 289.878906 L 362.417969 297.925781 L 383.769531 306.566406 L 387.03125 298.507813 L 377.382813 294.617188 L 389.070313 293.453125 L 392.621094 284.652344 "/>
</g>
</svg>
