<?xml version="1.0" encoding="UTF-8" standalone="no"?>
<!-- Created with Inkscape (http://www.inkscape.org/) -->

<svg
   xmlns:v="http://schemas.microsoft.com/visio/2003/SVGExtensions/"
   xmlns:dc="http://purl.org/dc/elements/1.1/"
   xmlns:cc="http://creativecommons.org/ns#"
   xmlns:rdf="http://www.w3.org/1999/02/22-rdf-syntax-ns#"
   xmlns:svg="http://www.w3.org/2000/svg"
   xmlns="http://www.w3.org/2000/svg"
   xmlns:sodipodi="http://sodipodi.sourceforge.net/DTD/sodipodi-0.dtd"
   xmlns:inkscape="http://www.inkscape.org/namespaces/inkscape"
   width="429.96796"
   height="565.28125"
   id="svg2"
   version="1.1"
   inkscape:version="0.48.4 r9939"
   sodipodi:docname="Inland Ocean.svg">
  <defs
     id="defs4">
    <v:pageProperties
       v:drawingScale="1"
       v:pageScale="0.25"
       v:drawingUnits="0"
       v:shadowOffsetX="8.50394"
       v:shadowOffsetY="-8.50394" />
  </defs>
  <sodipodi:namedview
     id="base"
     pagecolor="#ffffff"
     bordercolor="#666666"
     borderopacity="1.0"
     inkscape:pageopacity="0.0"
     inkscape:pageshadow="2"
     inkscape:zoom="0.7"
     inkscape:cx="-218.3139"
     inkscape:cy="-47.10392"
     inkscape:document-units="px"
     inkscape:current-layer="layer1"
     showgrid="false"
     inkscape:window-width="1680"
     inkscape:window-height="987"
     inkscape:window-x="1672"
     inkscape:window-y="-8"
     inkscape:window-maximized="1"
     fit-margin-top="10"
     fit-margin-left="10"
     fit-margin-bottom="10"
     fit-margin-right="10" />
  <metadata
     id="metadata7">
    <rdf:RDF>
      <cc:Work
         rdf:about="">
        <dc:format>image/svg+xml</dc:format>
        <dc:type
           rdf:resource="http://purl.org/dc/dcmitype/StillImage" />
        <dc:title></dc:title>
      </cc:Work>
    </rdf:RDF>
  </metadata>
  <g
     inkscape:label="Layer 1"
     inkscape:groupmode="layer"
     id="layer1"
     transform="translate(-166.3191,201.8018)">
    <g
       style="font-size:12px;fill:none;stroke-linecap:square;stroke-miterlimit:3"
       id="#ffffffff-9"
       transform="matrix(0.13433954,0,0,0.13433954,259.52559,217.74038)" />
    <g
       style="font-size:12px;fill:none;stroke-linecap:square;stroke-miterlimit:3"
       id="#0a4e01ff-9"
       transform="matrix(0.13433954,0,0,0.13433954,259.52559,217.74038)" />
    <g
       style="font-size:12px;fill:none;stroke-linecap:square;stroke-miterlimit:3"
       id="#220156ff-7"
       transform="matrix(0.13433954,0,0,0.13433954,259.52559,217.74038)" />
    <g
       id="g6698"
       transform="translate(-1529.7952,1435.2607)">
      <g
         id="g6658">
        <g
           id="g6620"
           transform="matrix(1.0385278,0,0,1,-65.828703,0)">
          <g
             id="g5630"
             transform="matrix(2.89533,0,0,2.9664911,1552.9404,-3519.2588)">
            <path
               sodipodi:nodetypes="ccccccccccccc"
               inkscape:connector-curvature="0"
               id="path5362-0-8-0"
               d="m 134.91453,814.41591 c 11.14677,-5.98741 21.45991,-13.64919 30.00792,-23.00712 8.95842,-9.76109 16.238,-21.34033 19.90278,-34.09786 2.31179,-7.98865 3.45043,-16.31509 3.22558,-24.7122 -0.17571,-28.64389 -0.21205,-57.2062 -0.19027,-85.76853 -21.90119,-2.62051 -44.36246,-5.2392 -66.78254,-7.74527 -22.405449,2.75137 -44.851698,5.36832 -66.738209,7.98708 0.02178,28.5432 -0.0145,57.08641 -0.176574,85.61787 -0.211067,8.29825 0.926809,16.61911 3.237055,24.60243 3.662272,12.74898 10.937029,24.32047 19.889445,34.07503 8.542274,9.35168 18.848535,17.00832 29.987793,22.99173 4.28656,2.27031 8.83488,4.35733 13.81405,6.01745 4.98221,-1.60035 9.5336,-3.68877 13.82297,-5.96061 z"
               style="font-size:12px;fill:#220056;fill-opacity:1;stroke:#000000;stroke-width:0.74165213;stroke-linecap:square;stroke-miterlimit:3;stroke-opacity:1;stroke-dasharray:none" />
            <path
               style="font-size:12px;fill:#fcfbff;fill-opacity:1;stroke:#ffffff;stroke-width:1.01036847;stroke-linecap:square;stroke-miterlimit:3;stroke-opacity:1;stroke-dasharray:none"
               d="m 78.667133,672.26643 c 3.056699,1.00633 5.574426,3.60147 6.820934,6.8173 1.437881,-3.18357 4.129903,-5.66415 6.844525,-6.8173 -2.967154,-0.99031 -5.620111,-3.71643 -6.844525,-6.78101 -0.974551,3.18679 -3.684076,5.53175 -6.820934,6.78101 z"
               id="path5417-4-2"
               inkscape:connector-curvature="0"
               sodipodi:nodetypes="ccccc" />
            <g
               id="g4492-8"
               transform="matrix(0.67422919,0,0,0.67422919,-557.6655,503.02719)"
               style="stroke:#000000;stroke-width:1.10000002;stroke-miterlimit:4;stroke-opacity:1;stroke-dasharray:none">
              <g
                 id="g4471-6"
                 style="stroke:#000000;stroke-width:1.10000002;stroke-miterlimit:4;stroke-opacity:1;stroke-dasharray:none">
                <g
                   id="g4460-0"
                   style="stroke:#000000;stroke-width:1.10000002;stroke-miterlimit:4;stroke-opacity:1;stroke-dasharray:none">
                  <g
                     id="g4452-8"
                     style="stroke:#000000;stroke-width:1.10000002;stroke-miterlimit:4;stroke-opacity:1;stroke-dasharray:none" />
                </g>
                <g
                   id="g4442-6"
                   transform="translate(0.42214662,-0.03496213)"
                   style="stroke:#000000;stroke-width:1.10000002;stroke-miterlimit:4;stroke-opacity:1;stroke-dasharray:none">
                  <g
                     style="stroke:none"
                     id="g6584">
                    <path
                       transform="translate(-0.42214554,0.03494603)"
                       id="path5341-8-1-9-2"
                       d="m 1018.4334,271.77699 c 6.571,-6.70322 12.9128,-12.58289 19.4805,-19.2268 0.09,-0.10898 0.2757,-0.32434 0.3685,-0.43066 -7.5006,3.63703 -13.8304,7.00818 -21.2949,10.72284"
                       inkscape:connector-curvature="0"
                       style="font-size:12px;fill:#132675;fill-opacity:1;stroke:none"
                       sodipodi:nodetypes="cccc" />
                    <path
                       transform="translate(-0.42214554,0.03494603)"
                       id="path5348-9-3-4"
                       d="m 1038.3665,252.14901 c -6.6879,6.64479 -13.1798,12.8953 -19.8677,19.54009 3.1083,0.97504 6.2812,1.69357 9.4164,2.57972 z"
                       inkscape:connector-curvature="0"
                       style="font-size:12px;fill:#cbcacf;fill-opacity:1;stroke:none"
                       sodipodi:nodetypes="cccc" />
                    <path
                       transform="translate(-0.42214554,0.03494603)"
                       sodipodi:nodetypes="cccc"
                       style="font-size:12px;fill:#cbcacf;fill-opacity:1;stroke:none"
                       inkscape:connector-curvature="0"
                       d="m 1006.707,205.11607 0.017,78.11643 11.8464,-11.03313 z"
                       id="path5323-3-1-6" />
                    <path
                       transform="translate(-0.42214554,0.03494603)"
                       sodipodi:nodetypes="ccccc"
                       style="font-size:12px;fill:#132675;fill-opacity:1;stroke:none"
                       inkscape:connector-curvature="0"
                       d="m 1038.8524,315.37303 c -1.872,-4.1668 -3.8921,-8.26626 -5.8153,-12.40882 -1.7103,-3.56347 -3.4294,-7.29805 -5.1856,-10.83727 l -9.5241,2.95564 z"
                       id="path5345-9-4-5" />
                    <path
                       transform="translate(-0.42214554,0.03494603)"
                       sodipodi:nodetypes="cccc"
                       style="font-size:12px;fill:#cbcacf;fill-opacity:1;stroke:none"
                       inkscape:connector-curvature="0"
                       d="m 1058.2696,283.07221 c -17.0605,0.0269 -34.4828,0.1872 -51.546,0.16029 l 11.8398,12.16976 z"
                       id="path5350-7-2-0" />
                    <path
                       transform="translate(-0.42214554,0.03494603)"
                       sodipodi:nodetypes="cccc"
                       style="font-size:12px;fill:#cbcacf;fill-opacity:1;stroke:none"
                       inkscape:connector-curvature="0"
                       d="m 1038.8115,315.34013 c -6.7229,-6.74714 -14.7811,-14.29932 -21.5094,-21.04108 l -0.5212,10.40982 z"
                       id="path5354-2-2-9" />
                    <path
                       transform="translate(-0.42214554,0.03494603)"
                       sodipodi:nodetypes="cccc"
                       style="font-size:12px;fill:#132675;fill-opacity:1;stroke:none"
                       inkscape:connector-curvature="0"
                       d="m 1006.7236,283.2325 51.4675,-0.16029 -39.7579,-11.46496 c -3.7144,3.99917 -8.4544,7.98539 -11.7096,11.62525 z"
                       id="path5343-1-7-6-0" />
                    <path
                       transform="translate(-0.42214554,0.03494603)"
                       sodipodi:nodetypes="cccc"
                       id="path5352-2-4-1-0"
                       d="m 1006.7236,283.2325 c 3.5366,3.85436 8.256,8.4734 11.8464,12.27927 l -11.863,66.52939 z"
                       style="font-size:12px;fill:#132675;fill-opacity:1;stroke:none"
                       inkscape:connector-curvature="0" />
                    <path
                       id="path5323-3-13"
                       d="m 1006.2848,205.15334 0.017,78.11412 -11.8775,-11.02548 z"
                       inkscape:connector-curvature="0"
                       style="font-size:12px;fill:#132675;fill-opacity:1;stroke:none"
                       sodipodi:nodetypes="cccc" />
                    <path
                       id="path5345-9-89"
                       d="m 974.19403,315.38675 c 1.87071,-4.16402 3.88946,-8.26074 5.81131,-12.40052 1.70921,-3.56108 3.42717,-7.29316 5.18214,-10.83002 l 9.5178,2.95367 z"
                       inkscape:connector-curvature="0"
                       style="font-size:12px;fill:#cbcacf;fill-opacity:1;stroke:none"
                       sodipodi:nodetypes="ccccc" />
                    <path
                       id="path5348-9-34"
                       d="m 974.67959,252.20503 c 6.68341,6.64035 13.17095,12.88667 19.85437,19.52702 -3.10619,0.97439 -6.27698,1.69243 -9.41008,2.57799 z"
                       inkscape:connector-curvature="0"
                       style="font-size:12px;fill:#132675;fill-opacity:1;stroke:none"
                       sodipodi:nodetypes="cccc" />
                    <path
                       id="path5350-7-4"
                       d="m 954.78978,283.10736 c 17.04904,0.0269 34.45995,0.18704 51.51172,0.1601 l -11.83208,12.16564 z"
                       inkscape:connector-curvature="0"
                       style="font-size:12px;fill:#132675;fill-opacity:1;stroke:none"
                       sodipodi:nodetypes="cccc" />
                    <path
                       id="path5354-2-6"
                       d="m 974.23482,315.35387 c 6.71841,-6.74263 14.77122,-14.28975 21.49501,-21.027 l 0.52091,10.40285 z"
                       inkscape:connector-curvature="0"
                       style="font-size:12px;fill:#132675;fill-opacity:1;stroke:none"
                       sodipodi:nodetypes="cccc" />
                    <path
                       id="path5341-8-1-4-0"
                       d="m 994.59929,271.80538 c -6.5666,-6.69873 -12.90412,-12.57447 -19.4675,-19.21394 -0.09,-0.10891 -0.27551,-0.32412 -0.36827,-0.43037 7.49561,3.6346 13.82115,7.00349 21.2807,10.71566"
                       inkscape:connector-curvature="0"
                       style="font-size:12px;fill:#cbcacf;fill-opacity:1;stroke:none"
                       sodipodi:nodetypes="cccc" />
                    <path
                       id="path5343-1-7-66"
                       d="m 1006.3015,283.26746 -51.43333,-0.1601 39.73132,-11.46127 c 3.71191,3.99649 8.44901,7.98395 11.70201,11.62137 z"
                       inkscape:connector-curvature="0"
                       style="font-size:12px;fill:#cbcacf;fill-opacity:1;stroke:none"
                       sodipodi:nodetypes="cccc" />
                    <path
                       inkscape:connector-curvature="0"
                       style="font-size:12px;fill:#cbcacf;fill-opacity:1;stroke:none"
                       d="m 1006.3015,283.26746 c -3.5341,3.85178 -8.28951,8.49416 -11.8775,12.29749 l 11.8608,66.5295 z"
                       id="path5352-2-4-18"
                       sodipodi:nodetypes="cccc" />
                  </g>
                </g>
              </g>
            </g>
            <g
               id="g4550-4"
               transform="matrix(0.67422919,0,0,0.67422919,-557.52862,503.02719)" />
            <path
               style="font-size:12px;fill:#fcfbff;fill-opacity:1;stroke:#ffffff;stroke-width:1.01036847;stroke-linecap:square;stroke-miterlimit:3;stroke-opacity:1;stroke-dasharray:none"
               d="m 62.227032,694.50018 c 3.056699,1.00634 5.574426,3.60148 6.820934,6.8173 1.437881,-3.18357 4.129903,-5.66414 6.844525,-6.8173 -2.967154,-0.99031 -5.620111,-3.71642 -6.844525,-6.78101 -0.974551,3.1868 -3.684076,5.53175 -6.820934,6.78101 z"
               id="path5417-4-9-7"
               inkscape:connector-curvature="0"
               sodipodi:nodetypes="ccccc" />
            <path
               style="font-size:12px;fill:#fcfbff;fill-opacity:1;stroke:#ffffff;stroke-width:1.01036847;stroke-linecap:square;stroke-miterlimit:3;stroke-opacity:1;stroke-dasharray:none"
               d="m 78.667133,716.29456 c 3.056699,1.00633 5.574426,3.60147 6.820934,6.8173 1.437881,-3.18357 4.129903,-5.66415 6.844525,-6.8173 -2.967154,-0.99031 -5.620111,-3.71643 -6.844525,-6.78101 -0.974551,3.18679 -3.684076,5.53175 -6.820934,6.78101 z"
               id="path5417-4-3-8"
               inkscape:connector-curvature="0"
               sodipodi:nodetypes="ccccc" />
            <path
               style="font-size:12px;fill:#fcfbff;fill-opacity:1;stroke:#ffffff;stroke-width:1.01036847;stroke-linecap:square;stroke-miterlimit:3;stroke-opacity:1;stroke-dasharray:none"
               d="m 150.08078,672.26643 c 3.05669,1.00633 5.57446,3.60147 6.82098,6.8173 1.43786,-3.18357 4.12985,-5.66415 6.8445,-6.8173 -2.96715,-0.99031 -5.6201,-3.71643 -6.8445,-6.78101 -0.9746,3.18679 -3.68413,5.53175 -6.82098,6.78101 z"
               id="path5417-4-1-8"
               inkscape:connector-curvature="0"
               sodipodi:nodetypes="ccccc" />
            <path
               style="font-size:12px;fill:#fcfbff;fill-opacity:1;stroke:#ffffff;stroke-width:1.01036847;stroke-linecap:square;stroke-miterlimit:3;stroke-opacity:1;stroke-dasharray:none"
               d="m 166.21414,694.50018 c 3.05669,1.00634 5.57439,3.60148 6.82091,6.8173 1.43793,-3.18357 4.12992,-5.66414 6.84457,-6.8173 -2.96721,-0.99031 -5.62017,-3.71642 -6.84457,-6.78101 -0.97453,3.1868 -3.68406,5.53175 -6.82091,6.78101 z"
               id="path5417-4-98-2"
               inkscape:connector-curvature="0"
               sodipodi:nodetypes="ccccc" />
            <path
               style="font-size:12px;fill:#fcfbff;fill-opacity:1;stroke:#ffffff;stroke-width:1.01036847;stroke-linecap:square;stroke-miterlimit:3;stroke-opacity:1;stroke-dasharray:none"
               d="m 150.08085,716.29456 c 3.05668,1.00633 5.57439,3.60147 6.82091,6.8173 1.43786,-3.18357 4.12992,-5.66415 6.8445,-6.8173 -2.96715,-0.99031 -5.6201,-3.71643 -6.8445,-6.78101 -0.97454,3.18679 -3.68406,5.53175 -6.82091,6.78101 z"
               id="path5417-4-6-9"
               inkscape:connector-curvature="0"
               sodipodi:nodetypes="ccccc" />
          </g>
          <g
             id="g6566">
            <g
               id="g6571">
              <path
                 style="font-size:12px;fill:#0a4e01;fill-opacity:1;stroke:none"
                 d="m 907.05357,340.48719 11.21026,-18.44125 c 6.32812,11.03853 12.667,22.07707 18.94397,33.14521 -1.63653,0.035 -3.27307,-0.003 -4.9096,-0.008 4.78578,8.43569 9.65232,16.82293 14.42196,25.2667 -2.40904,0.0162 -4.81809,-0.0242 -7.22713,-0.0108 2.44403,4.36589 4.98497,8.67525 7.4317,13.04114 1.7442,-2.71051 3.30537,-5.53946 4.90691,-8.33341 -1.69306,-0.0215 -3.38612,-0.0188 -5.07918,-0.0135 l 19.18084,-32.9891 18.98165,33.13445 c -1.63115,0.008 -3.26231,-0.005 -4.89346,-0.005 2.51671,4.41972 5.0092,8.85559 7.5932,13.23494 6.43309,-10.94164 11.86821,-22.00159 18.68041,-32.94581 6.8122,10.94443 12.2473,22.00438 18.6804,32.94602 2.584,-4.37935 5.0765,-8.81522 7.5932,-13.23494 -1.6312,0 -3.2623,0.0135 -4.8935,0.005 l 18.9817,-33.13447 19.1808,32.9891 c -1.693,-0.005 -3.3861,-0.008 -5.0791,0.0135 1.6015,2.79396 3.1627,5.6229 4.9069,8.33341 2.4467,-4.36589 4.9876,-8.67525 7.4317,-13.04114 -2.4091,-0.0135 -4.8181,0.0269 -7.2272,0.0108 4.7697,-8.44376 9.6362,-16.831 14.422,-25.26669 -1.6366,0.005 -3.2731,0.0431 -4.9096,0.008 6.277,-11.06818 12.6158,-22.10672 18.9439,-33.14525 l 11.2103,18.44125 c 0.2795,25.33864 -4.235,41.07292 -13.0729,58.60389 -8.8379,17.53097 -20.6897,28.05141 -28.6561,36.16973 -8.0854,8.23969 -21.7025,17.52182 -28.9152,21.78476 -6.5231,3.85541 -19.2316,10.70069 -28.4715,13.55862 -9.21847,-2.83035 -18.02096,-7.08022 -28.08788,-13.41315 -11.84213,-7.4497 -21.96588,-15.12136 -33.26899,-26.33286 -12.68427,-12.58147 -26.84598,-35.12342 -31.99139,-51.01648 -5.13782,-15.86959 -5.38407,-26.57565 -6.01907,-39.3543 z"
                 id="path3507-9"
                 inkscape:connector-curvature="0"
                 sodipodi:nodetypes="cccccccccccccccccccccccccccssscssscc"
                 transform="matrix(1.952116,0,0,2.0000949,-61.28894,-2027.0332)" />
              <path
                 sodipodi:nodetypes="cccc"
                 style="font-size:12px;fill:#220056;fill-opacity:1;stroke:none"
                 inkscape:connector-curvature="0"
                 d="m 1866.6665,-1229.9741 8.6661,0.04 -4.3183,8.1125 z"
                 id="path5365-8-3-7-7-3" />
              <path
                 sodipodi:nodetypes="cccc"
                 style="font-size:12px;fill:#220056;fill-opacity:1;stroke:none"
                 inkscape:connector-curvature="0"
                 d="m 1930.8837,-1230.0674 8.6661,0.039 -4.3182,8.1125 z"
                 id="path5365-8-3-7-7-3-5" />
            </g>
          </g>
        </g>
        <path
           sodipodi:nodetypes="ccccccccccccc"
           inkscape:connector-curvature="0"
           id="path5362-0-8-0-5-8-1-3-1"
           d="m 1952.3319,-1104.6108 c 33.2884,-17.669 64.0873,-40.2791 89.6149,-67.8946 26.7532,-28.8053 48.4928,-62.9759 59.4372,-100.6237 6.9039,-23.5748 10.3043,-48.0118 9.6328,-72.7919 -0.5247,-84.5289 -0.6332,-168.5948 -0.5682,-252.883 -65.4052,-7.7332 -132.4168,-15.8178 -199.3716,-23.2132 -66.9111,8.1193 -134.0103,15.4852 -199.3717,23.2132 0.065,84.2318 -0.043,168.6859 -0.5273,252.883 -0.6303,24.4883 2.7678,49.1779 9.6671,72.7369 10.9369,37.6226 32.6621,71.7704 59.3973,100.5564 25.5105,27.597 56.2889,50.192 89.5549,67.8492 12.8013,6.6998 26.3641,12.8586 41.2337,17.7576 14.8788,-4.7227 28.4912,-10.8856 41.3009,-17.5899 z"
           style="font-size:12px;fill:none;stroke:#000000;stroke-width:10;stroke-linecap:square;stroke-miterlimit:3;stroke-opacity:1;stroke-dasharray:none" />
      </g>
    </g>
  </g>
  <style
     id="style2987"
     type="text/css">
	
		.st1 {fill:none;stroke:none;stroke-linecap:round;stroke-linejoin:round;stroke-width:0.75}
		.st2 {fill:#000000;font-family:Calibri;font-size:1.00001em}
		.st3 {font-size:1em}
		.st4 {fill:none;stroke:#000000;stroke-linecap:round;stroke-linejoin:round;stroke-width:0.75}
		.st5 {stroke:#000000;stroke-linecap:round;stroke-linejoin:round;stroke-width:0.75}
		.st6 {fill:#ffffff;stroke:#000000;stroke-linecap:round;stroke-linejoin:round;stroke-width:0.24}
		.st7 {stroke:#000000;stroke-dasharray:0.75,1.5;stroke-linecap:round;stroke-linejoin:round;stroke-width:0.75}
		.st8 {fill:none;fill-rule:evenodd;font-size:12px;overflow:visible;stroke-linecap:square;stroke-miterlimit:3}
	
	</style>
</svg>
